<svg width="185" height="122" viewBox="0 0 185 122" fill="none" xmlns="http://www.w3.org/2000/svg">
<path d="M184 101.5L184 102.5L185 102.5L185 101.5L184 101.5ZM5.99945 101.5L5.99945 100.5L4.99945 100.5L4.99945 101.5L5.99945 101.5ZM5.99944 121.5L11.7729 111.5L0.225945 111.5L5.99944 121.5ZM183.999 5.94669e-05L182.999 6.22112e-05L183 101.5L184 101.5L185 101.5L184.999 5.67225e-05L183.999 5.94669e-05ZM184 101.5L184 100.5L5.99945 100.5L5.99945 101.5L5.99945 102.5L184 102.5L184 101.5ZM5.99945 101.5L4.99945 101.5L4.99945 112.5L5.99944 112.5L6.99945 112.5L6.99945 101.5L5.99945 101.5Z" fill="white"/>
</svg>
