<svg width="266" height="321" viewBox="0 0 266 321" fill="none" xmlns="http://www.w3.org/2000/svg">
<path d="M265 222.5L265 223.5L266 223.5L266 222.5L265 222.5ZM6 222.5L5.99999 221.5L5 221.5L5.00001 222.5L6 222.5ZM6.00001 320.5L11.7735 310.5L0.226503 310.5L6.00001 320.5ZM265 0.5L264 0.5L264 222.5L265 222.5L266 222.5L266 0.5L265 0.5ZM265 222.5L265 221.5L5.99999 221.5L6 222.5L6.00001 223.5L265 223.5L265 222.5ZM6 222.5L5.00001 222.5L5.00002 311.5L6.00001 311.5L7.00002 311.5L6.99999 222.5L6 222.5Z" fill="white"/>
</svg>
