<svg width="96" height="302" viewBox="0 0 96 302" fill="none" xmlns="http://www.w3.org/2000/svg">
<path d="M0.999927 52L0.999928 51L-7.00309e-05 51L-7.12103e-05 52L0.999927 52ZM0.999928 266.5L-7.02435e-05 266.5L-7.14481e-05 267.5L0.999926 267.5L0.999928 266.5ZM90.9998 52L90.9998 53L91.9998 53L91.9998 52L90.9998 52ZM89.9999 266.5L90.9999 266.5L90.9999 265.5L89.9999 265.5L89.9999 266.5ZM89.9999 302L95.7734 292L84.2264 292L89.9999 302ZM0.999927 52L-7.12103e-05 52L-7.02435e-05 266.5L0.999928 266.5L1.99993 266.5L1.99992 52L0.999927 52ZM90.9999 -1.30911e-05L89.9999 -1.46075e-05L89.9998 52L90.9998 52L91.9998 52L91.9999 -1.1575e-05L90.9999 -1.30911e-05ZM90.9998 52L90.9998 51L0.999928 51L0.999927 52L0.999925 53L90.9998 53L90.9998 52ZM0.999928 266.5L0.999926 267.5L89.9999 267.5L89.9999 266.5L89.9999 265.5L0.999929 265.5L0.999928 266.5ZM89.9999 266.5L88.9999 266.5L88.9999 293L89.9999 293L90.9999 293L90.9999 266.5L89.9999 266.5Z" fill="white"/>
</svg>
