<svg width="490" height="106" viewBox="0 0 490 106" fill="none" xmlns="http://www.w3.org/2000/svg">
<path d="M5.99936 31.5L5.99937 30.5L4.99935 30.5L4.99935 31.5L5.99936 31.5ZM5.99936 106L11.7729 96.0002L0.225867 96.0002L5.99936 106ZM488.5 31.5L488.5 32.5L489.5 32.5L489.5 31.5L488.5 31.5ZM5.99936 31.5L4.99935 31.5L4.99935 97.0002L5.99937 97.0002L6.99935 97.0002L6.99938 31.5L5.99936 31.5ZM488.5 4.39018e-05L487.5 4.36387e-05L487.5 31.5L488.5 31.5L489.5 31.5L489.5 4.41649e-05L488.5 4.39018e-05ZM488.5 31.5L488.5 30.5L5.99937 30.5L5.99936 31.5L5.99936 32.5L488.5 32.5L488.5 31.5Z" fill="white"/>
</svg>
