<svg width="156" height="106" viewBox="0 0 156 106" fill="none" xmlns="http://www.w3.org/2000/svg">
<path d="M1.00021 16.5L0.000210069 16.5L0.000213489 17.5L1.00021 17.5L1.00021 16.5ZM148 16.5L149 16.4777L148.978 15.5L148 15.5L148 16.5ZM150 106L155.549 95.8735L144.005 96.1315L150 106ZM1.0002 2.10657e-05L0.000202326 2.43123e-05L0.000210069 16.5L1.00021 16.5L2.00021 16.5L2.00021 1.78191e-05L1.0002 2.10657e-05ZM1.00021 16.5L1.00021 17.5L148 17.5L148 16.5L148 15.5L1.00021 15.5L1.00021 16.5ZM148 16.5L147 16.5223L148.799 97.0246L149.799 97.0023L150.799 96.9799L149 16.4777L148 16.5Z" fill="white"/>
</svg>
