<svg width="313" height="108" viewBox="0 0 313 108" fill="none" xmlns="http://www.w3.org/2000/svg">
<path d="M0.999637 59.5L-0.00036325 59.5L-0.000363452 60.5L0.999636 60.5L0.999637 59.5ZM307 59.5L308 59.5L308 58.5L307 58.5L307 59.5ZM307 108L312.773 98L301.226 97.9999L307 108ZM0.999645 -3.14098e-05L-0.000354957 -3.06791e-05L-0.00036325 59.5L0.999637 59.5L1.99964 59.5L1.99965 -3.21405e-05L0.999645 -3.14098e-05ZM0.999637 59.5L0.999636 60.5L307 60.5L307 59.5L307 58.5L0.999637 58.5L0.999637 59.5ZM307 59.5L306 59.5L306 99L307 99L308 99L308 59.5L307 59.5Z" fill="white"/>
</svg>
