<svg width="159" height="106" viewBox="0 0 159 106" fill="none" xmlns="http://www.w3.org/2000/svg">
<path d="M1.00005 64L5.06223e-05 64L4.88848e-05 65L1.00005 65L1.00005 64ZM153 64L154 64L154 63L153 63L153 64ZM153 106L158.774 96L147.227 96L153 106ZM1.00005 -2.41981e-05L4.96008e-05 -2.3318e-05L5.06223e-05 64L1.00005 64L2.00005 64L2.00005 -2.50781e-05L1.00005 -2.41981e-05ZM1.00005 64L1.00005 65L153 65L153 64L153 63L1.00005 63L1.00005 64ZM153 64L152 64L152 97L153 97L154 97L154 64L153 64Z" fill="white"/>
</svg>
