<svg width="158" height="106" viewBox="0 0 158 106" fill="none" xmlns="http://www.w3.org/2000/svg">
<path d="M157 49.9999L157 50.9999L158 50.9999L158 49.9999L157 49.9999ZM6.00013 50L6.00014 49L5.00014 49L5.00013 50L6.00013 50ZM6.00008 106L11.7736 95.9999L0.226596 95.9999L6.00008 106ZM157 -8.00061e-05L156 -8.19553e-05L156 49.9999L157 49.9999L158 49.9999L158 -7.8057e-05L157 -8.00061e-05ZM157 49.9999L157 48.9999L6.00014 49L6.00013 50L6.00013 51L157 50.9999L157 49.9999ZM6.00013 50L5.00013 50L5.0001 96.9999L6.0001 96.9999L7.0001 96.9999L7.00013 50L6.00013 50Z" fill="white"/>
</svg>
