<svg width="154" height="109" viewBox="0 0 154 109" fill="none" xmlns="http://www.w3.org/2000/svg">
<path d="M0.999982 83L-1.923e-05 83L-1.74348e-05 84L0.999981 84L0.999982 83ZM148 83L149 83L149 82L148 82L148 83ZM148 109L153.773 99L142.226 99L148 109ZM0.999981 -1.39394e-05L-1.91731e-05 -1.41788e-05L-1.923e-05 83L0.999982 83L1.99998 83L1.99998 -1.37e-05L0.999981 -1.39394e-05ZM0.999982 83L0.999981 84L148 84L148 83L148 82L0.999983 82L0.999982 83ZM148 83L147 83L147 100L148 100L149 100L149 83L148 83Z" fill="white"/>
</svg>
