<svg width="144" height="106" viewBox="0 0 144 106" fill="none" xmlns="http://www.w3.org/2000/svg">
<path d="M6.5 29.7253L6.49999 28.7253L5.49999 28.7253L5.49999 29.7253L6.5 29.7253ZM6.5 106L12.2735 96L0.726497 96L6.5 106ZM143 29.7253L143 30.7253L144 30.7253L144 29.7253L143 29.7253ZM6.5 29.7253L5.49999 29.7253L5.5 97L6.5 97L7.5 97L7.5 29.7253L6.5 29.7253ZM143 0.499994L142 0.499994L142 29.7253L143 29.7253L144 29.7253L144 0.499994L143 0.499994ZM143 29.7253L143 28.7253L6.49999 28.7253L6.5 29.7253L6.5 30.7253L143 30.7253L143 29.7253Z" fill="white"/>
</svg>
