<svg width="261" height="511" viewBox="0 0 261 511" fill="none" xmlns="http://www.w3.org/2000/svg">
<path d="M227.5 236.013L227.5 237.013L228.5 237.013L228.5 236.013L227.5 236.013ZM48.7007 236.013L48.7007 235.013L47.7181 235.013L47.7009 235.996L48.7007 236.013ZM45.3914 424.686L45.3904 425.686L46.374 425.687L46.3912 424.704L45.3914 424.686ZM6.41406 424.647L6.41507 423.647L5.41306 423.646L5.41407 424.648L6.41406 424.647ZM6.49993 510.5L12.2634 500.494L0.716428 500.506L6.49993 510.5ZM227.5 47L227.5 46L226.5 46L226.5 47L227.5 47ZM260 47L260 48L261 48L261 47L260 47ZM227.5 236.013L227.5 235.013L48.7007 235.013L48.7007 236.013L48.7007 237.013L227.5 237.013L227.5 236.013ZM48.7007 236.013L47.7009 235.996L44.3915 424.669L45.3914 424.686L46.3912 424.704L49.7006 236.031L48.7007 236.013ZM45.3914 424.686L45.3924 423.686L6.41507 423.647L6.41406 424.647L6.41306 425.647L45.3904 425.686L45.3914 424.686ZM6.41406 424.647L5.41407 424.648L5.49092 501.501L6.49092 501.5L7.49091 501.499L7.41406 424.646L6.41406 424.647ZM227.5 47L226.5 47L226.5 236.013L227.5 236.013L228.5 236.013L228.5 47L227.5 47ZM260 0.500032L259 0.500034L259 47L260 47L261 47L261 0.50003L260 0.500032ZM260 47L260 46L227.5 46L227.5 47L227.5 48L260 48L260 47Z" fill="white"/>
</svg>
