<svg width="97" height="106" viewBox="0 0 97 106" fill="none" xmlns="http://www.w3.org/2000/svg">
<path d="M6.17252 48.5L6.17252 47.5L5.17252 47.5L5.17252 48.5L6.17252 48.5ZM6.17253 106L11.946 96L0.399028 96L6.17253 106ZM95.1725 48.5L95.1725 49.5L96.1725 49.5L96.1725 48.5L95.1725 48.5ZM6.17252 48.5L5.17252 48.5L5.17252 97L6.17253 97L7.17253 97L7.17252 48.5L6.17252 48.5ZM95.1725 3.1691e-05L94.1725 3.07516e-05L94.1725 48.5L95.1725 48.5L96.1725 48.5L96.1725 3.26304e-05L95.1725 3.1691e-05ZM95.1725 48.5L95.1725 47.5L6.17252 47.5L6.17252 48.5L6.17252 49.5L95.1725 49.5L95.1725 48.5Z" fill="white"/>
</svg>
