<svg width="138" height="300" viewBox="0 0 138 300" fill="none" xmlns="http://www.w3.org/2000/svg">
<path d="M91.0001 60L91.0001 59L90.0001 59L90.0001 60L91.0001 60ZM91.0001 272.5L91.0001 273.5L92.0001 273.5L92.0001 272.5L91.0001 272.5ZM6 272.5L6 271.5L5.00001 271.5L5 272.5L6 272.5ZM6 300L11.7735 290L0.2265 290L6 300ZM137 60L137 61L138 61L138 60L137 60ZM91.0001 60L90.0001 60L90.0001 272.5L91.0001 272.5L92.0001 272.5L92.0001 60L91.0001 60ZM91.0001 272.5L91.0001 271.5L6 271.5L6 272.5L6 273.5L91.0001 273.5L91.0001 272.5ZM6 272.5L5 272.5L5 291L6 291L7 291L7 272.5L6 272.5ZM137 -0.000181392L136 -0.000180489L136 60L137 60L138 60L138 -0.000182295L137 -0.000181392ZM137 60L137 59L91.0001 59L91.0001 60L91.0001 61L137 61L137 60Z" fill="white"/>
</svg>
