<svg width="113" height="107" viewBox="0 0 113 107" fill="none" xmlns="http://www.w3.org/2000/svg">
<path d="M0.999419 54.5003L-0.000582132 54.5003L-0.00058076 55.5003L0.999418 55.5003L0.999419 54.5003ZM107 54.5002L108 54.5002L108 53.5002L107 53.5002L107 54.5002ZM106.999 107L112.773 97.0004L101.226 97.0003L106.999 107ZM0.999425 0.000373235L-0.000574652 0.000373193L-0.000582132 54.5003L0.999419 54.5003L1.99942 54.5003L1.99943 0.000373277L0.999425 0.000373235ZM0.999419 54.5003L0.999418 55.5003L107 55.5002L107 54.5002L107 53.5002L0.99942 53.5003L0.999419 54.5003ZM107 54.5002L106 54.5002L105.999 98.0004L106.999 98.0004L107.999 98.0004L108 54.5002L107 54.5002Z" fill="white"/>
</svg>
