<svg width="692" height="105" viewBox="0 0 692 105" fill="none" xmlns="http://www.w3.org/2000/svg">
<path d="M1.00001 46L1.23753e-05 46L1.21191e-05 47L1.00001 47L1.00001 46ZM686 46L687 46L687 45L686 45L686 46ZM686 105L691.774 94.9999L680.227 94.9999L686 105ZM1.00001 -8.00083e-05L1.16195e-05 -7.90509e-05L1.23753e-05 46L1.00001 46L2.00001 46L2.00001 -8.09657e-05L1.00001 -8.00083e-05ZM1.00001 46L1.00001 47L686 47L686 46L686 45L1.00001 45L1.00001 46ZM686 46L685 46L685 95.9999L686 95.9999L687 95.9999L687 46L686 46Z" fill="white"/>
</svg>
