<svg width="322" height="106" viewBox="0 0 322 106" fill="none" xmlns="http://www.w3.org/2000/svg">
<path d="M6.00043 52.5L6.00042 51.5L5.00042 51.5L5.00043 52.5L6.00043 52.5ZM6.00043 106L11.7739 96.0001L0.226939 96.0001L6.00043 106ZM320.5 52.5L320.5 53.5L321.5 53.5L321.5 52.5L320.5 52.5ZM6.00043 52.5L5.00043 52.5L5.00043 97.0001L6.00043 97.0001L7.00043 97.0001L7.00043 52.5L6.00043 52.5ZM320.5 0.000119226L319.5 0.000109355L319.5 52.5L320.5 52.5L321.5 52.5L321.5 0.000129097L320.5 0.000119226ZM320.5 52.5L320.5 51.5L6.00042 51.5L6.00043 52.5L6.00044 53.5L320.5 53.5L320.5 52.5Z" fill="white"/>
</svg>
