<svg width="95" height="316" viewBox="0 0 95 316" fill="none" xmlns="http://www.w3.org/2000/svg">
<path d="M93.5001 80.5L94.5001 80.5L94.5001 79.5L93.5001 79.5L93.5001 80.5ZM93.5001 286L93.5001 287L94.5001 287L94.5001 286L93.5001 286ZM5.99989 286L5.99989 285L4.99989 285L4.99989 286L5.99989 286ZM5.99989 316L11.7734 306L0.226389 306L5.99989 316ZM39.9999 80.5L38.9999 80.5L38.9999 81.5L39.9999 81.5L39.9999 80.5ZM93.5001 80.5L92.5001 80.5L92.5001 286L93.5001 286L94.5001 286L94.5001 80.5L93.5001 80.5ZM93.5001 286L93.5001 285L5.99989 285L5.99989 286L5.99989 287L93.5001 287L93.5001 286ZM5.99989 286L4.99989 286L4.99988 307L5.99989 307L6.99989 307L6.99989 286L5.99989 286ZM39.9999 -0.000259225L38.9999 -0.000259351L38.9999 80.5L39.9999 80.5L40.9999 80.5L40.9999 -0.0002591L39.9999 -0.000259225ZM39.9999 80.5L39.9999 81.5L93.5001 81.5L93.5001 80.5L93.5001 79.5L39.9999 79.5L39.9999 80.5Z" fill="white"/>
</svg>
