<svg width="112" height="107" viewBox="0 0 112 107" fill="none" xmlns="http://www.w3.org/2000/svg">
<path d="M1.49972 51.5L0.499724 51.5L0.499725 52.5L1.49972 52.5L1.49972 51.5ZM105.5 51.5L106.5 51.5L106.5 50.5L105.5 50.5L105.5 51.5ZM105.5 106.5L111.273 96.5L99.7263 96.5L105.5 106.5ZM1.49973 7.93375e-06L0.499726 7.78173e-06L0.499724 51.5L1.49972 51.5L2.49972 51.5L2.49973 8.08577e-06L1.49973 7.93375e-06ZM1.49972 51.5L1.49972 52.5L105.5 52.5L105.5 51.5L105.5 50.5L1.49972 50.5L1.49972 51.5ZM105.5 51.5L104.5 51.5L104.5 97.5L105.5 97.5L106.5 97.5L106.5 51.5L105.5 51.5Z" fill="white"/>
</svg>
