<svg width="637" height="315" viewBox="0 0 637 315" fill="none" xmlns="http://www.w3.org/2000/svg">
<path d="M593.5 38L593.469 37.0005L592.5 37.0311L592.5 38L593.5 38ZM593.5 208.5L593.5 209.5L594.5 209.5L594.5 208.5L593.5 208.5ZM635.829 36.6634L635.861 37.6629L636.825 37.6325L636.829 36.6683L635.829 36.6634ZM80 208.5L80 207.5L79 207.5L79 208.5L80 208.5ZM80 260L80 261L81 261L81 260L80 260ZM6.00667 260L6.0067 259L5.00668 259L5.00665 260L6.00667 260ZM6.00665 314.019L11.7802 304.019L0.233151 304.019L6.00665 314.019ZM593.5 38L592.5 38L592.5 208.5L593.5 208.5L594.5 208.5L594.5 38L593.5 38ZM636.007 0.018914L635.007 0.0140834L634.829 36.6586L635.829 36.6634L636.829 36.6683L637.007 0.0237446L636.007 0.018914ZM635.829 36.6634L635.798 35.6639L593.469 37.0005L593.5 38L593.532 38.9995L635.861 37.6629L635.829 36.6634ZM593.5 208.5L593.5 207.5L80 207.5L80 208.5L80 209.5L593.5 209.5L593.5 208.5ZM80 208.5L79 208.5L79 260L80 260L81 260L81 208.5L80 208.5ZM80 260L80 259L6.0067 259L6.00667 260L6.00665 261L80 261L80 260ZM6.00667 260L5.00665 260L5.00665 305.019L6.00667 305.019L7.00664 305.019L7.0067 260L6.00667 260Z" fill="white"/>
</svg>
