<svg width="96" height="300" viewBox="0 0 96 300" fill="none" xmlns="http://www.w3.org/2000/svg">
<path d="M74.5001 65.5L74.5001 66.5L75.5001 66.5L75.5001 65.5L74.5001 65.5ZM1.50012 65.5L1.50012 64.5L0.500115 64.5L0.500119 65.5L1.50012 65.5ZM1.50012 184.5L2.50012 184.5L1.50012 184.5ZM1.50012 229.5L0.500118 229.5L0.500115 230.5L1.50011 230.5L1.50012 229.5ZM90.0003 229.5L91.0003 229.5L91.0003 228.5L90.0003 228.5L90.0003 229.5ZM90.0003 300L95.7738 290L84.2268 290L90.0003 300ZM74.5001 2.73538e-05L73.5001 2.7346e-05L73.5001 65.5L74.5001 65.5L75.5001 65.5L75.5001 2.73615e-05L74.5001 2.73538e-05ZM74.5001 65.5L74.5001 64.5L1.50012 64.5L1.50012 65.5L1.50011 66.5L74.5001 66.5L74.5001 65.5ZM1.50012 65.5L0.500119 65.5L0.50012 184.5L1.50012 184.5L2.50012 184.5L2.50012 65.5L1.50012 65.5ZM1.50012 184.5L0.50012 184.5L0.500118 229.5L1.50012 229.5L2.50012 229.5L2.50012 184.5L1.50012 184.5ZM1.50012 229.5L1.50011 230.5L90.0003 230.5L90.0003 229.5L90.0003 228.5L1.50012 228.5L1.50012 229.5ZM90.0003 229.5L89.0003 229.5L89.0003 291L90.0003 291L91.0003 291L91.0003 229.5L90.0003 229.5Z" fill="white"/>
</svg>
