<svg width="157" height="106" viewBox="0 0 157 106" fill="none" xmlns="http://www.w3.org/2000/svg">
<path d="M0.99993 43.4999L-6.95756e-05 43.4999L-6.96957e-05 44.4999L0.99993 44.4999L0.99993 43.4999ZM151 43.5L152 43.5L152 42.5L151 42.5L151 43.5ZM151 106L156.773 95.9999L145.226 95.9999L151 106ZM0.999921 -0.000125466L-7.85176e-05 -0.000125689L-6.95756e-05 43.4999L0.99993 43.4999L1.99993 43.4999L1.99992 -0.000125243L0.999921 -0.000125466ZM0.99993 43.4999L0.99993 44.4999L151 44.5L151 43.5L151 42.5L0.99993 42.4999L0.99993 43.4999ZM151 43.5L150 43.5L150 96.9999L151 96.9999L152 96.9999L152 43.5L151 43.5Z" fill="white"/>
</svg>
