<svg width="186" height="494" viewBox="0 0 186 494" fill="none" xmlns="http://www.w3.org/2000/svg">
<path d="M185 50L185 51L186 51L186 50L185 50ZM98.5004 50L98.5004 49L97.5004 49L97.5004 50L98.5004 50ZM98.5004 402.5L98.5004 403.5L99.5003 403.5L99.5004 402.5L98.5004 402.5ZM6.00018 402.5L6.00018 401.5L5.00019 401.5L5.00018 402.5L6.00018 402.5ZM6.00019 494L11.7737 484L0.226684 484L6.00019 494ZM185 -5.86518e-05L184 -5.62779e-05L184 50L185 50L186 50L186 -6.10258e-05L185 -5.86518e-05ZM185 50L185 49L98.5004 49L98.5004 50L98.5004 51L185 51L185 50ZM98.5004 50L97.5004 50L97.5004 402.5L98.5004 402.5L99.5004 402.5L99.5004 50L98.5004 50ZM98.5004 402.5L98.5004 401.5L6.00018 401.5L6.00018 402.5L6.00018 403.5L98.5004 403.5L98.5004 402.5ZM6.00018 402.5L5.00018 402.5L5.00019 485L6.00018 485L7.00019 485L7.00018 402.5L6.00018 402.5Z" fill="white"/>
</svg>
