<svg width="185" height="300" viewBox="0 0 185 300" fill="none" xmlns="http://www.w3.org/2000/svg">
<path d="M184 14.5003L184 15.5003L185 15.5003L185 14.5003L184 14.5003ZM89.5001 14.5003L89.5001 13.5003L88.5001 13.5003L88.5001 14.5003L89.5001 14.5003ZM89.5001 278.5L89.5001 279.5L90.5001 279.5L90.5001 278.5L89.5001 278.5ZM5.99999 278.5L5.99998 277.5L4.99998 277.5L4.99999 278.5L5.99999 278.5ZM5.99998 299.5L11.7735 289.5L0.226478 289.5L5.99998 299.5ZM184 0.000220793L183 0.000209496L183 14.5003L184 14.5003L185 14.5003L185 0.000232091L184 0.000220793ZM184 14.5003L184 13.5003L89.5001 13.5003L89.5001 14.5003L89.5001 15.5003L184 15.5003L184 14.5003ZM89.5001 14.5003L88.5001 14.5003L88.5001 278.5L89.5001 278.5L90.5001 278.5L90.5001 14.5003L89.5001 14.5003ZM89.5001 278.5L89.5001 277.5L5.99998 277.5L5.99999 278.5L5.99999 279.5L89.5001 279.5L89.5001 278.5ZM5.99999 278.5L4.99999 278.5L4.99998 290.5L5.99999 290.5L6.99999 290.5L6.99999 278.5L5.99999 278.5Z" fill="white"/>
</svg>
