<svg width="1440" height="1830" viewBox="0 0 1440 1830" fill="none" xmlns="http://www.w3.org/2000/svg">
<g clip-path="url(#clip0_10_70)">
<path d="M1.04542 788.9L-2.77752 781.152L99.9122 730.48L103.735 738.227L1.04542 788.9ZM9.31415 770.369C6.7469 771.636 4.17596 771.962 1.6013 771.347C-0.973353 770.733 -2.78853 769.36 -3.84423 767.228L-24.8704 724.618C-25.9217 722.487 -25.9065 720.212 -24.8248 717.794C-23.7431 715.375 -21.9208 713.532 -19.3579 712.264L55.3255 675.411C57.8927 674.144 60.4659 673.819 63.0449 674.434C65.624 675.05 67.4369 676.422 68.4839 678.552L89.5101 721.162C90.5614 723.293 90.5484 725.568 89.471 727.988C88.3937 730.408 86.5692 732.25 83.9976 733.516L9.31415 770.369ZM5.4912 762.621L80.1746 725.769L59.1484 683.158L-15.535 720.011L5.4912 762.621Z" fill="#932D2F" fill-opacity="0.99"/>
</g>
<g clip-path="url(#clip1_10_70)">
<path d="M441.045 845.9L437.222 838.152L539.912 787.48L543.735 795.227L441.045 845.9ZM449.314 827.369C446.747 828.636 444.176 828.962 441.601 828.347C439.027 827.733 437.211 826.36 436.156 824.228L415.13 781.618C414.078 779.487 414.093 777.213 415.175 774.794C416.257 772.375 418.079 770.532 420.642 769.264L495.325 732.411C497.893 731.144 500.466 730.819 503.045 731.434C505.624 732.05 507.437 733.422 508.484 735.552L529.51 778.162C530.561 780.293 530.548 782.568 529.471 784.988C528.394 787.408 526.569 789.25 523.998 790.516L449.314 827.369ZM445.491 819.622L520.175 782.769L499.148 740.158L424.465 777.011L445.491 819.622Z" fill="#932D2F" fill-opacity="0.99"/>
</g>
<g clip-path="url(#clip2_10_70)">
<path d="M93.0454 322.9L89.2225 315.152L191.912 264.48L195.735 272.227L93.0454 322.9ZM101.314 304.369C98.7469 305.636 96.176 305.962 93.6013 305.347C91.0266 304.733 89.2115 303.36 88.1558 301.228L67.1296 258.618C66.0783 256.487 66.0935 254.212 67.1752 251.794C68.2569 249.375 70.0792 247.532 72.6421 246.264L147.325 209.411C149.893 208.144 152.466 207.819 155.045 208.434C157.624 209.05 159.437 210.422 160.484 212.552L181.51 255.162C182.561 257.293 182.548 259.568 181.471 261.988C180.394 264.408 178.569 266.25 175.998 267.516L101.314 304.369ZM97.4912 296.621L172.175 259.769L151.148 217.158L76.465 254.011L97.4912 296.621Z" fill="#932D2F" fill-opacity="0.99"/>
</g>
<g clip-path="url(#clip3_10_70)">
<path d="M-39.9546 256.9L-43.7775 249.152L58.9122 198.48L62.7351 206.227L-39.9546 256.9ZM-31.6859 238.369C-34.2531 239.636 -36.824 239.962 -39.3987 239.347C-41.9734 238.733 -43.7885 237.36 -44.8442 235.228L-65.8704 192.618C-66.9217 190.487 -66.9065 188.212 -65.8248 185.794C-64.7431 183.375 -62.9208 181.532 -60.3579 180.264L14.3255 143.411C16.8927 142.144 19.4659 141.819 22.0449 142.434C24.624 143.05 26.4369 144.422 27.4839 146.552L48.5101 189.162C49.5614 191.293 49.5484 193.568 48.471 195.988C47.3937 198.408 45.5692 200.25 42.9976 201.516L-31.6859 238.369ZM-35.5088 230.621L39.1746 193.769L18.1484 151.158L-56.535 188.011L-35.5088 230.621Z" fill="#932D2F" fill-opacity="0.99"/>
</g>
<g clip-path="url(#clip4_10_70)">
<path d="M1346.54 36.4017L1350.33 28.6401L1453.21 78.929L1449.41 86.6905L1346.54 36.4017ZM1366.26 31.6169C1363.68 30.3597 1361.85 28.5245 1360.77 26.1113C1359.68 23.6981 1359.66 21.4222 1360.7 19.2837L1381.56 -23.4049C1382.61 -25.5394 1384.42 -26.9179 1386.99 -27.5405C1389.57 -28.1631 1392.14 -27.8479 1394.71 -26.5948L1469.53 9.97889C1472.1 11.2361 1473.93 13.0734 1475.02 15.4907C1476.11 17.908 1476.13 20.1818 1475.09 22.3122L1454.22 65.0008C1453.18 67.1352 1451.37 68.5158 1448.8 69.1425C1446.22 69.7692 1443.65 69.4519 1441.08 68.1906L1366.26 31.6169ZM1370.05 23.8554L1444.87 60.429L1465.74 17.7405L1390.92 -18.8332L1370.05 23.8554Z" fill="#932D2F" fill-opacity="0.99"/>
</g>
<path d="M1267.54 394.402L1271.33 386.64L1374.21 436.929L1370.41 444.69L1267.54 394.402ZM1287.26 389.617C1284.68 388.36 1282.85 386.524 1281.77 384.111C1280.68 381.698 1280.66 379.422 1281.7 377.284L1302.56 334.595C1303.61 332.461 1305.42 331.082 1307.99 330.459C1310.57 329.837 1313.14 330.152 1315.71 331.405L1390.53 367.979C1393.1 369.236 1394.93 371.073 1396.02 373.491C1397.11 375.908 1397.13 378.182 1396.09 380.312L1375.22 423.001C1374.18 425.135 1372.37 426.516 1369.8 427.142C1367.22 427.769 1364.65 427.452 1362.08 426.191L1287.26 389.617ZM1291.05 381.855L1365.87 418.429L1386.74 375.74L1311.92 339.167L1291.05 381.855Z" fill="#932D2F" fill-opacity="0.99"/>
<path d="M159.407 460.399L155.584 452.651L258.273 401.979L262.096 409.726L159.407 460.399ZM167.675 441.868C165.108 443.135 162.537 443.461 159.962 442.846C157.388 442.232 155.573 440.859 154.517 438.727L133.491 396.117C132.439 393.986 132.455 391.711 133.536 389.293C134.618 386.874 136.44 385.03 139.003 383.763L213.687 346.91C216.254 345.643 218.827 345.317 221.406 345.933C223.985 346.549 225.798 347.921 226.845 350.051L247.871 392.661C248.922 394.792 248.909 397.067 247.832 399.487C246.755 401.906 244.93 403.749 242.359 405.015L167.675 441.868ZM163.852 434.12L238.536 397.268L217.51 354.657L142.826 391.51L163.852 434.12Z" fill="#932D2F" fill-opacity="0.99"/>
<g clip-path="url(#clip5_10_70)">
<path d="M-2.95458 34.8997L-6.77752 27.1524L95.9122 -23.5201L99.7351 -15.7727L-2.95458 34.8997ZM5.31415 16.3688C2.7469 17.6356 0.175958 17.9618 -2.3987 17.3472C-4.97335 16.7327 -6.78853 15.3596 -7.84423 13.2281L-28.8704 -29.3823C-29.9217 -31.5129 -29.9065 -33.7875 -28.8248 -36.2063C-27.7431 -38.6251 -25.9208 -40.4684 -23.3579 -41.7363L51.3255 -78.589C53.8927 -79.8558 56.4659 -80.1814 59.0449 -79.5658C61.624 -78.9502 63.4369 -77.5777 64.4839 -75.4482L85.5101 -32.8378C86.5614 -30.7073 86.5484 -28.4321 85.471 -26.0123C84.3937 -23.5924 82.5692 -21.7496 79.9976 -20.4839L5.31415 16.3688ZM1.4912 8.62148L76.1746 -28.2312L55.1484 -70.8416L-19.535 -33.9889L1.4912 8.62148Z" fill="#932D2F" fill-opacity="0.99"/>
</g>
<path d="M-24.5935 498.399L-28.4164 490.651L74.2733 439.979L78.0962 447.726L-24.5935 498.399ZM-16.3248 479.868C-18.892 481.135 -21.463 481.461 -24.0376 480.846C-26.6123 480.232 -28.4274 478.859 -29.4831 476.727L-50.5093 434.117C-51.5607 431.986 -51.5454 429.711 -50.4637 427.293C-49.382 424.874 -47.5597 423.03 -44.9969 421.763L29.6866 384.91C32.2538 383.643 34.827 383.317 37.406 383.933C39.985 384.549 41.798 385.921 42.8449 388.051L63.8711 430.661C64.9224 432.792 64.9094 435.067 63.8321 437.487C62.7548 439.906 60.9303 441.749 58.3587 443.015L-16.3248 479.868ZM-20.1477 472.12L54.5357 435.268L33.5095 392.657L-41.1739 429.51L-20.1477 472.12Z" fill="#932D2F" fill-opacity="0.99"/>
<g clip-path="url(#clip6_10_70)">
<path d="M93.0454 151.9L89.2225 144.152L191.912 93.4799L195.735 101.227L93.0454 151.9ZM101.314 133.369C98.7469 134.636 96.176 134.962 93.6013 134.347C91.0266 133.733 89.2115 132.36 88.1558 130.228L67.1296 87.6177C66.0783 85.4871 66.0935 83.2125 67.1752 80.7937C68.2569 78.3749 70.0792 76.5316 72.6421 75.2637L147.325 38.411C149.893 37.1442 152.466 36.8186 155.045 37.4342C157.624 38.0498 159.437 39.4223 160.484 41.5518L181.51 84.1622C182.561 86.2927 182.548 88.5679 181.471 90.9877C180.394 93.4076 178.569 95.2504 175.998 96.5161L101.314 133.369ZM97.4912 125.621L172.175 88.7688L151.148 46.1584L76.465 83.0111L97.4912 125.621Z" fill="#932D2F" fill-opacity="0.99"/>
</g>
<path d="M1145.54 259.402L1149.33 251.64L1252.21 301.929L1248.41 309.691L1145.54 259.402ZM1165.26 254.617C1162.68 253.36 1160.85 251.524 1159.77 249.111C1158.68 246.698 1158.66 244.422 1159.7 242.284L1180.56 199.595C1181.61 197.461 1183.42 196.082 1185.99 195.459C1188.57 194.837 1191.14 195.152 1193.71 196.405L1268.53 232.979C1271.1 234.236 1272.93 236.073 1274.02 238.491C1275.11 240.908 1275.13 243.182 1274.09 245.312L1253.22 288.001C1252.18 290.135 1250.37 291.516 1247.8 292.143C1245.22 292.769 1242.65 292.452 1240.08 291.191L1165.26 254.617ZM1169.05 246.855L1243.87 283.429L1264.74 240.74L1189.92 204.167L1169.05 246.855Z" fill="#932D2F" fill-opacity="0.99"/>
<path d="M1040 126.854L1043.79 119.093L1146.67 169.381L1142.88 177.143L1040 126.854ZM1059.72 122.069C1057.15 120.812 1055.32 118.977 1054.23 116.564C1053.14 114.15 1053.12 111.875 1054.16 109.736L1075.03 67.0474C1076.07 64.913 1077.88 63.5345 1080.46 62.9118C1083.03 62.2892 1085.6 62.6045 1088.17 63.8576L1163 100.431C1165.57 101.688 1167.4 103.526 1168.49 105.943C1169.58 108.36 1169.6 110.634 1168.55 112.765L1147.69 155.453C1146.64 157.588 1144.84 158.968 1142.26 159.595C1139.69 160.222 1137.11 159.904 1134.54 158.643L1059.72 122.069ZM1063.51 114.308L1138.33 150.881L1159.2 108.193L1084.38 71.6191L1063.51 114.308Z" fill="#932D2F" fill-opacity="0.99"/>
<path d="M546 16.7477L546.101 8.1091L660.605 9.45151L660.504 18.0901L546 16.7477ZM561.766 3.97283C558.904 3.93927 556.464 3.06541 554.447 1.35124C552.43 -0.362936 551.434 -2.40929 551.458 -4.78784L552.015 -52.3003C552.043 -54.676 553.087 -56.697 555.147 -58.3633C557.207 -60.0297 559.667 -60.8476 562.526 -60.8169L645.801 -59.8406C648.664 -59.8071 651.105 -58.9318 653.126 -57.2147C655.146 -55.4976 656.141 -53.4527 656.109 -51.08L655.552 -3.56746C655.524 -1.19184 654.482 0.830623 652.425 2.49992C650.369 4.16921 647.908 4.98562 645.041 4.94913L561.766 3.97283ZM561.867 -4.6658L645.143 -3.6895L645.7 -51.202L562.424 -52.1783L561.867 -4.6658Z" fill="#932D2F" fill-opacity="0.99"/>
<path d="M666 147.748L666.101 139.109L780.605 140.452L780.504 149.09L666 147.748ZM681.766 134.973C678.904 134.939 676.464 134.065 674.447 132.351C672.43 130.637 671.434 128.591 671.458 126.212L672.015 78.6997C672.043 76.324 673.087 74.303 675.147 72.6367C677.207 70.9703 679.667 70.1524 682.526 70.1831L765.801 71.1594C768.664 71.1929 771.105 72.0682 773.126 73.7853C775.146 75.5024 776.141 77.5473 776.109 79.92L775.552 127.433C775.524 129.808 774.482 131.831 772.425 133.5C770.369 135.169 767.908 135.986 765.041 135.949L681.766 134.973ZM681.867 126.334L765.143 127.31L765.7 79.798L682.424 78.8217L681.867 126.334Z" fill="#932D2F" fill-opacity="0.99"/>
<path d="M871 52.8541L874.794 45.0925L977.672 95.3813L973.878 103.143L871 52.8541ZM890.72 48.0693C888.148 46.8121 886.318 44.9769 885.23 42.5636C884.143 40.1504 884.12 37.8746 885.161 35.736L906.028 -6.95258C907.072 -9.08701 908.881 -10.4655 911.456 -11.0882C914.032 -11.7108 916.605 -11.3955 919.175 -10.1424L993.995 26.4312C996.567 27.6885 998.398 29.5257 999.487 31.9431C1000.58 34.3604 1000.6 36.6342 999.554 38.7645L978.687 81.4531C977.643 83.5875 975.835 84.9681 973.261 85.5949C970.688 86.2216 968.114 85.9043 965.54 84.643L890.72 48.0693ZM894.514 40.3077L969.334 76.8814L990.201 34.1928L915.381 -2.38087L894.514 40.3077Z" fill="#932D2F" fill-opacity="0.99"/>
<path d="M882 251.748L882.101 243.109L996.605 244.452L996.504 253.09L882 251.748ZM897.766 238.973C894.904 238.939 892.464 238.065 890.447 236.351C888.43 234.637 887.434 232.591 887.458 230.212L888.015 182.7C888.043 180.324 889.087 178.303 891.147 176.637C893.207 174.97 895.667 174.152 898.526 174.183L981.801 175.159C984.664 175.193 987.105 176.068 989.126 177.785C991.146 179.502 992.141 181.547 992.109 183.92L991.552 231.433C991.524 233.808 990.482 235.831 988.425 237.5C986.369 239.169 983.908 239.986 981.041 239.949L897.766 238.973ZM897.867 230.334L981.143 231.31L981.7 183.798L898.424 182.822L897.867 230.334Z" fill="#932D2F" fill-opacity="0.99"/>
<path d="M640 291.748L640.101 283.109L754.605 284.452L754.504 293.09L640 291.748ZM655.766 278.973C652.904 278.939 650.464 278.065 648.447 276.351C646.43 274.637 645.434 272.591 645.458 270.212L646.015 222.7C646.043 220.324 647.087 218.303 649.147 216.637C651.207 214.97 653.667 214.152 656.526 214.183L739.801 215.159C742.664 215.193 745.105 216.068 747.126 217.785C749.146 219.502 750.141 221.547 750.109 223.92L749.552 271.433C749.524 273.808 748.482 275.831 746.425 277.5C744.369 279.169 741.908 279.986 739.041 279.949L655.766 278.973ZM655.867 270.334L739.143 271.31L739.7 223.798L656.424 222.822L655.867 270.334Z" fill="#932D2F" fill-opacity="0.99"/>
<path d="M760 422.748L760.101 414.109L874.605 415.452L874.504 424.09L760 422.748ZM775.766 409.973C772.904 409.939 770.464 409.065 768.447 407.351C766.43 405.637 765.434 403.591 765.458 401.212L766.015 353.7C766.043 351.324 767.087 349.303 769.147 347.637C771.207 345.97 773.667 345.152 776.526 345.183L859.801 346.159C862.664 346.193 865.105 347.068 867.126 348.785C869.146 350.502 870.141 352.547 870.109 354.92L869.552 402.433C869.524 404.808 868.482 406.831 866.425 408.5C864.369 410.169 861.908 410.986 859.041 410.949L775.766 409.973ZM775.867 401.334L859.143 402.31L859.7 354.798L776.424 353.822L775.867 401.334Z" fill="#932D2F" fill-opacity="0.99"/>
<path d="M586 599.748L586.101 591.109L700.605 592.452L700.504 601.09L586 599.748ZM601.766 586.973C598.904 586.939 596.464 586.065 594.447 584.351C592.43 582.637 591.434 580.591 591.458 578.212L592.015 530.7C592.043 528.324 593.087 526.303 595.147 524.637C597.207 522.97 599.667 522.152 602.526 522.183L685.801 523.159C688.664 523.193 691.105 524.068 693.126 525.785C695.146 527.502 696.141 529.547 696.109 531.92L695.552 579.433C695.524 581.808 694.482 583.831 692.425 585.5C690.369 587.169 687.908 587.986 685.041 587.949L601.766 586.973ZM601.867 578.334L685.143 579.31L685.7 531.798L602.424 530.822L601.867 578.334Z" fill="#932D2F" fill-opacity="0.99"/>
<path d="M763 559.748L763.101 551.109L877.605 552.452L877.504 561.09L763 559.748ZM778.766 546.973C775.904 546.939 773.464 546.065 771.447 544.351C769.43 542.637 768.434 540.591 768.458 538.212L769.015 490.7C769.043 488.324 770.087 486.303 772.147 484.637C774.207 482.97 776.667 482.152 779.526 482.183L862.801 483.159C865.664 483.193 868.105 484.068 870.126 485.785C872.146 487.502 873.141 489.547 873.109 491.92L872.552 539.433C872.524 541.808 871.482 543.831 869.425 545.5C867.369 547.169 864.908 547.986 862.041 547.949L778.766 546.973ZM778.867 538.334L862.143 539.31L862.7 491.798L779.424 490.822L778.867 538.334Z" fill="#932D2F" fill-opacity="0.99"/>
<path d="M706 730.748L706.101 722.109L820.605 723.452L820.504 732.09L706 730.748ZM721.766 717.973C718.904 717.939 716.464 717.065 714.447 715.351C712.43 713.637 711.434 711.591 711.458 709.212L712.015 661.7C712.043 659.324 713.087 657.303 715.147 655.637C717.207 653.97 719.667 653.152 722.526 653.183L805.801 654.159C808.664 654.193 811.105 655.068 813.126 656.785C815.146 658.502 816.141 660.547 816.109 662.92L815.552 710.433C815.524 712.808 814.482 714.831 812.425 716.5C810.369 718.169 807.908 718.986 805.041 718.949L721.766 717.973ZM721.867 709.334L805.143 710.31L805.7 662.798L722.424 661.822L721.867 709.334Z" fill="#932D2F" fill-opacity="0.99"/>
<path d="M911 635.854L914.794 628.093L1017.67 678.381L1013.88 686.143L911 635.854ZM930.72 631.069C928.148 629.812 926.318 627.977 925.23 625.564C924.143 623.15 924.12 620.875 925.161 618.736L946.028 576.047C947.072 573.913 948.881 572.534 951.456 571.912C954.032 571.289 956.605 571.604 959.175 572.858L1034 609.431C1036.57 610.688 1038.4 612.526 1039.49 614.943C1040.58 617.36 1040.6 619.634 1039.55 621.765L1018.69 664.453C1017.64 666.588 1015.84 667.968 1013.26 668.595C1010.69 669.222 1008.11 668.904 1005.54 667.643L930.72 631.069ZM934.514 623.308L1009.33 659.881L1030.2 617.193L955.381 580.619L934.514 623.308Z" fill="#932D2F" fill-opacity="0.99"/>
<path d="M1094 -11.1459L1097.79 -18.9075L1200.67 31.3813L1196.88 39.1429L1094 -11.1459ZM1113.72 -15.9307C1111.15 -17.1879 1109.32 -19.0231 1108.23 -21.4364C1107.14 -23.8496 1107.12 -26.1254 1108.16 -28.264L1129.03 -70.9526C1130.07 -73.087 1131.88 -74.4655 1134.46 -75.0882C1137.03 -75.7108 1139.6 -75.3955 1142.17 -74.1424L1217 -37.5688C1219.57 -36.3115 1221.4 -34.4743 1222.49 -32.0569C1223.58 -29.6396 1223.6 -27.3658 1222.55 -25.2355L1201.69 17.4531C1200.64 19.5875 1198.84 20.9681 1196.26 21.5949C1193.69 22.2216 1191.11 21.9043 1188.54 20.643L1113.72 -15.9307ZM1117.51 -23.6923L1192.33 12.8814L1213.2 -29.8072L1138.38 -66.3809L1117.51 -23.6923Z" fill="#932D2F" fill-opacity="0.99"/>
<g clip-path="url(#clip7_10_70)">
<path d="M1224.54 131.402L1228.33 123.64L1331.21 173.929L1327.41 181.691L1224.54 131.402ZM1244.26 126.617C1241.68 125.36 1239.85 123.524 1238.77 121.111C1237.68 118.698 1237.66 116.422 1238.7 114.284L1259.56 71.5951C1260.61 69.4606 1262.42 68.0821 1264.99 67.4595C1267.57 66.8369 1270.14 67.1521 1272.71 68.4052L1347.53 104.979C1350.1 106.236 1351.93 108.073 1353.02 110.491C1354.11 112.908 1354.13 115.182 1353.09 117.312L1332.22 160.001C1331.18 162.135 1329.37 163.516 1326.8 164.143C1324.22 164.769 1321.65 164.452 1319.08 163.191L1244.26 126.617ZM1248.05 118.855L1322.87 155.429L1343.74 112.74L1268.92 76.1668L1248.05 118.855Z" fill="#932D2F" fill-opacity="0.99"/>
</g>
<g clip-path="url(#clip8_10_70)">
<path d="M1357.54 253.402L1361.33 245.64L1464.21 295.929L1460.41 303.691L1357.54 253.402ZM1377.26 248.617C1374.68 247.36 1372.85 245.524 1371.77 243.111C1370.68 240.698 1370.66 238.422 1371.7 236.284L1392.56 193.595C1393.61 191.461 1395.42 190.082 1397.99 189.459C1400.57 188.837 1403.14 189.152 1405.71 190.405L1480.53 226.979C1483.1 228.236 1484.93 230.073 1486.02 232.491C1487.11 234.908 1487.13 237.182 1486.09 239.312L1465.22 282.001C1464.18 284.135 1462.37 285.516 1459.8 286.143C1457.22 286.769 1454.65 286.452 1452.08 285.191L1377.26 248.617ZM1381.05 240.855L1455.87 277.429L1476.74 234.74L1401.92 198.167L1381.05 240.855Z" fill="#932D2F" fill-opacity="0.99"/>
</g>
<path d="M1265 640.854L1268.79 633.093L1371.67 683.381L1367.88 691.143L1265 640.854ZM1284.72 636.069C1282.15 634.812 1280.32 632.977 1279.23 630.564C1278.14 628.15 1278.12 625.875 1279.16 623.736L1300.03 581.047C1301.07 578.913 1302.88 577.534 1305.46 576.912C1308.03 576.289 1310.6 576.604 1313.17 577.858L1388 614.431C1390.57 615.688 1392.4 617.526 1393.49 619.943C1394.58 622.36 1394.6 624.634 1393.55 626.765L1372.69 669.453C1371.64 671.588 1369.84 672.968 1367.26 673.595C1364.69 674.222 1362.11 673.904 1359.54 672.643L1284.72 636.069ZM1288.51 628.308L1363.33 664.881L1384.2 622.193L1309.38 585.619L1288.51 628.308Z" fill="#932D2F" fill-opacity="0.99"/>
<path d="M953 799.854L956.794 792.093L1059.67 842.381L1055.88 850.143L953 799.854ZM972.72 795.069C970.148 793.812 968.318 791.977 967.23 789.564C966.143 787.15 966.12 784.875 967.161 782.736L988.028 740.047C989.072 737.913 990.881 736.534 993.456 735.912C996.032 735.289 998.605 735.604 1001.17 736.858L1076 773.431C1078.57 774.688 1080.4 776.526 1081.49 778.943C1082.58 781.36 1082.6 783.634 1081.55 785.765L1060.69 828.453C1059.64 830.588 1057.84 831.968 1055.26 832.595C1052.69 833.222 1050.11 832.904 1047.54 831.643L972.72 795.069ZM976.514 787.308L1051.33 823.881L1072.2 781.193L997.381 744.619L976.514 787.308Z" fill="#932D2F" fill-opacity="0.99"/>
<path d="M1090 682.854L1093.79 675.093L1196.67 725.381L1192.88 733.143L1090 682.854ZM1109.72 678.069C1107.15 676.812 1105.32 674.977 1104.23 672.564C1103.14 670.15 1103.12 667.875 1104.16 665.736L1125.03 623.047C1126.07 620.913 1127.88 619.534 1130.46 618.912C1133.03 618.289 1135.6 618.604 1138.17 619.858L1213 656.431C1215.57 657.688 1217.4 659.526 1218.49 661.943C1219.58 664.36 1219.6 666.634 1218.55 668.765L1197.69 711.453C1196.64 713.588 1194.84 714.968 1192.26 715.595C1189.69 716.222 1187.11 715.904 1184.54 714.643L1109.72 678.069ZM1113.51 670.308L1188.33 706.881L1209.2 664.193L1134.38 627.619L1113.51 670.308Z" fill="#932D2F" fill-opacity="0.99"/>
<path d="M1015 346.854L1018.79 339.093L1121.67 389.381L1117.88 397.143L1015 346.854ZM1034.72 342.069C1032.15 340.812 1030.32 338.977 1029.23 336.564C1028.14 334.15 1028.12 331.875 1029.16 329.736L1050.03 287.047C1051.07 284.913 1052.88 283.534 1055.46 282.912C1058.03 282.289 1060.6 282.604 1063.17 283.858L1138 320.431C1140.57 321.688 1142.4 323.526 1143.49 325.943C1144.58 328.36 1144.6 330.634 1143.55 332.765L1122.69 375.453C1121.64 377.588 1119.84 378.968 1117.26 379.595C1114.69 380.222 1112.11 379.904 1109.54 378.643L1034.72 342.069ZM1038.51 334.308L1113.33 370.881L1134.2 328.193L1059.38 291.619L1038.51 334.308Z" fill="#932D2F" fill-opacity="0.99"/>
<g clip-path="url(#clip9_10_70)">
<path d="M1145.54 489.402L1149.33 481.64L1252.21 531.929L1248.41 539.691L1145.54 489.402ZM1165.26 484.617C1162.68 483.36 1160.85 481.524 1159.77 479.111C1158.68 476.698 1158.66 474.422 1159.7 472.284L1180.56 429.595C1181.61 427.461 1183.42 426.082 1185.99 425.459C1188.57 424.837 1191.14 425.152 1193.71 426.405L1268.53 462.979C1271.1 464.236 1272.93 466.073 1274.02 468.491C1275.11 470.908 1275.13 473.182 1274.09 475.312L1253.22 518.001C1252.18 520.135 1250.37 521.516 1247.8 522.143C1245.22 522.769 1242.65 522.452 1240.08 521.191L1165.26 484.617ZM1169.05 476.855L1243.87 513.429L1264.74 470.74L1189.92 434.167L1169.05 476.855Z" fill="#932D2F" fill-opacity="0.99"/>
</g>
<path d="M961 484.854L964.794 477.093L1067.67 527.381L1063.88 535.143L961 484.854ZM980.72 480.069C978.148 478.812 976.318 476.977 975.23 474.564C974.143 472.15 974.12 469.875 975.161 467.736L996.028 425.047C997.072 422.913 998.881 421.534 1001.46 420.912C1004.03 420.289 1006.6 420.604 1009.17 421.858L1084 458.431C1086.57 459.688 1088.4 461.526 1089.49 463.943C1090.58 466.36 1090.6 468.634 1089.55 470.765L1068.69 513.453C1067.64 515.588 1065.84 516.968 1063.26 517.595C1060.69 518.222 1058.11 517.904 1055.54 516.643L980.72 480.069ZM984.514 472.308L1059.33 508.881L1080.2 466.193L1005.38 429.619L984.514 472.308Z" fill="#932D2F" fill-opacity="0.99"/>
<g clip-path="url(#clip10_10_70)">
<path d="M274.045 177.9L270.222 170.152L372.912 119.48L376.735 127.227L274.045 177.9ZM282.314 159.369C279.747 160.636 277.176 160.962 274.601 160.347C272.027 159.733 270.211 158.36 269.156 156.228L248.13 113.618C247.078 111.487 247.093 109.212 248.175 106.794C249.257 104.375 251.079 102.532 253.642 101.264L328.325 64.411C330.893 63.1442 333.466 62.8186 336.045 63.4342C338.624 64.0498 340.437 65.4223 341.484 67.5518L362.51 110.162C363.561 112.293 363.548 114.568 362.471 116.988C361.394 119.408 359.569 121.25 356.998 122.516L282.314 159.369ZM278.491 151.621L353.175 114.769L332.148 72.1584L257.465 109.011L278.491 151.621Z" fill="#932D2F" fill-opacity="0.99"/>
<path d="M274.045 177.9L270.222 170.152L372.912 119.48L376.735 127.227L274.045 177.9ZM282.314 159.369C279.747 160.636 277.176 160.962 274.601 160.347C272.027 159.733 270.211 158.36 269.156 156.228L248.13 113.618C247.078 111.487 247.093 109.212 248.175 106.794C249.257 104.375 251.079 102.532 253.642 101.264L328.325 64.411C330.893 63.1442 333.466 62.8186 336.045 63.4342C338.624 64.0498 340.437 65.4223 341.484 67.5518L362.51 110.162C363.561 112.293 363.548 114.568 362.471 116.988C361.394 119.408 359.569 121.25 356.998 122.516L282.314 159.369ZM278.491 151.621L353.175 114.769L332.148 72.1584L257.465 109.011L278.491 151.621Z" fill="#932D2F" fill-opacity="0.99"/>
</g>
<g clip-path="url(#clip11_10_70)">
<path d="M346.045 40.8997L342.222 33.1524L444.912 -17.5201L448.735 -9.77273L346.045 40.8997ZM354.314 22.3688C351.747 23.6356 349.176 23.9618 346.601 23.3472C344.027 22.7327 342.211 21.3596 341.156 19.2281L320.13 -23.3823C319.078 -25.5129 319.093 -27.7875 320.175 -30.2063C321.257 -32.6251 323.079 -34.4684 325.642 -35.7363L400.325 -72.589C402.893 -73.8558 405.466 -74.1814 408.045 -73.5658C410.624 -72.9502 412.437 -71.5777 413.484 -69.4482L434.51 -26.8378C435.561 -24.7073 435.548 -22.4321 434.471 -20.0123C433.394 -17.5924 431.569 -15.7496 428.998 -14.4839L354.314 22.3688ZM350.491 14.6215L425.175 -22.2312L404.148 -64.8416L329.465 -27.9889L350.491 14.6215Z" fill="#932D2F" fill-opacity="0.99"/>
<path d="M346.045 40.8997L342.222 33.1524L444.912 -17.5201L448.735 -9.77274L346.045 40.8997ZM354.314 22.3688C351.747 23.6356 349.176 23.9618 346.601 23.3472C344.027 22.7327 342.211 21.3596 341.156 19.2281L320.13 -23.3824C319.078 -25.5129 319.093 -27.7875 320.175 -30.2063C321.257 -32.6251 323.079 -34.4684 325.642 -35.7363L400.325 -72.589C402.893 -73.8558 405.466 -74.1814 408.045 -73.5658C410.624 -72.9502 412.437 -71.5777 413.484 -69.4482L434.51 -26.8378C435.561 -24.7073 435.548 -22.4321 434.471 -20.0123C433.394 -17.5924 431.569 -15.7496 428.998 -14.4839L354.314 22.3688ZM350.491 14.6215L425.175 -22.2312L404.148 -64.8416L329.465 -27.9889L350.491 14.6215Z" fill="#932D2F" fill-opacity="0.99"/>
</g>
<path d="M324.407 504.399L320.584 496.651L423.273 445.979L427.096 453.726L324.407 504.399ZM332.675 485.868C330.108 487.135 327.537 487.461 324.962 486.846C322.388 486.232 320.573 484.859 319.517 482.727L298.491 440.117C297.439 437.986 297.455 435.711 298.536 433.293C299.618 430.874 301.44 429.03 304.003 427.763L378.687 390.91C381.254 389.643 383.827 389.317 386.406 389.933C388.985 390.549 390.798 391.921 391.845 394.051L412.871 436.661C413.922 438.792 413.909 441.067 412.832 443.487C411.755 445.906 409.93 447.749 407.359 449.015L332.675 485.868ZM328.852 478.12L403.536 441.268L382.51 398.657L307.826 435.51L328.852 478.12Z" fill="#932D2F" fill-opacity="0.99"/>
<path d="M324.407 504.399L320.584 496.651L423.273 445.979L427.096 453.726L324.407 504.399ZM332.675 485.868C330.108 487.135 327.537 487.461 324.962 486.846C322.388 486.232 320.573 484.859 319.517 482.727L298.491 440.117C297.439 437.986 297.455 435.711 298.536 433.293C299.618 430.874 301.44 429.03 304.003 427.763L378.687 390.91C381.254 389.643 383.827 389.317 386.406 389.933C388.985 390.549 390.798 391.921 391.845 394.051L412.871 436.661C413.922 438.792 413.909 441.067 412.832 443.487C411.755 445.906 409.93 447.749 407.359 449.015L332.675 485.868ZM328.852 478.12L403.536 441.268L382.51 398.657L307.826 435.51L328.852 478.12Z" fill="#932D2F" fill-opacity="0.99"/>
<path d="M433.407 375.399L429.584 367.651L532.273 316.979L536.096 324.726L433.407 375.399ZM441.675 356.868C439.108 358.135 436.537 358.461 433.962 357.846C431.388 357.232 429.573 355.859 428.517 353.727L407.491 311.117C406.439 308.986 406.455 306.711 407.536 304.293C408.618 301.874 410.44 300.03 413.003 298.763L487.687 261.91C490.254 260.643 492.827 260.317 495.406 260.933C497.985 261.549 499.798 262.921 500.845 265.051L521.871 307.661C522.922 309.792 522.909 312.067 521.832 314.487C520.755 316.906 518.93 318.749 516.359 320.015L441.675 356.868ZM437.852 349.12L512.536 312.268L491.51 269.657L416.826 306.51L437.852 349.12Z" fill="#932D2F" fill-opacity="0.99"/>
<path d="M433.407 375.399L429.584 367.651L532.273 316.979L536.096 324.726L433.407 375.399ZM441.675 356.868C439.108 358.135 436.537 358.461 433.962 357.846C431.388 357.232 429.573 355.859 428.517 353.727L407.491 311.117C406.439 308.986 406.455 306.711 407.536 304.293C408.618 301.874 410.44 300.03 413.003 298.763L487.687 261.91C490.254 260.643 492.827 260.317 495.406 260.933C497.985 261.549 499.798 262.921 500.845 265.051L521.871 307.661C522.922 309.792 522.909 312.067 521.832 314.487C520.755 316.906 518.93 318.749 516.359 320.015L441.675 356.868ZM437.852 349.12L512.536 312.268L491.51 269.657L416.826 306.51L437.852 349.12Z" fill="#932D2F" fill-opacity="0.99"/>
<g clip-path="url(#clip12_10_70)">
<path d="M478.045 203.9L474.222 196.152L576.912 145.48L580.735 153.227L478.045 203.9ZM486.314 185.369C483.747 186.636 481.176 186.962 478.601 186.347C476.027 185.733 474.211 184.36 473.156 182.228L452.13 139.618C451.078 137.487 451.093 135.212 452.175 132.794C453.257 130.375 455.079 128.532 457.642 127.264L532.325 90.411C534.893 89.1442 537.466 88.8186 540.045 89.4342C542.624 90.0498 544.437 91.4223 545.484 93.5518L566.51 136.162C567.561 138.293 567.548 140.568 566.471 142.988C565.394 145.408 563.569 147.25 560.998 148.516L486.314 185.369ZM482.491 177.621L557.175 140.769L536.148 98.1584L461.465 135.011L482.491 177.621Z" fill="#932D2F" fill-opacity="0.99"/>
</g>
<path d="M456.407 667.399L452.584 659.651L555.273 608.979L559.096 616.726L456.407 667.399ZM464.675 648.868C462.108 650.135 459.537 650.461 456.962 649.846C454.388 649.232 452.573 647.859 451.517 645.727L430.491 603.117C429.439 600.986 429.455 598.711 430.536 596.293C431.618 593.874 433.44 592.03 436.003 590.763L510.687 553.91C513.254 552.643 515.827 552.317 518.406 552.933C520.985 553.549 522.798 554.921 523.845 557.051L544.871 599.661C545.922 601.792 545.909 604.067 544.832 606.487C543.755 608.906 541.93 610.749 539.359 612.015L464.675 648.868ZM460.852 641.12L535.536 604.268L514.51 561.657L439.826 598.51L460.852 641.12Z" fill="#932D2F" fill-opacity="0.99"/>
<path d="M281.407 326.399L277.584 318.651L380.273 267.979L384.096 275.726L281.407 326.399ZM289.675 307.868C287.108 309.135 284.537 309.461 281.962 308.846C279.388 308.232 277.573 306.859 276.517 304.727L255.491 262.117C254.439 259.986 254.455 257.711 255.536 255.293C256.618 252.874 258.44 251.03 261.003 249.763L335.687 212.91C338.254 211.643 340.827 211.317 343.406 211.933C345.985 212.549 347.798 213.921 348.845 216.051L369.871 258.661C370.922 260.792 370.909 263.067 369.832 265.487C368.755 267.906 366.93 269.749 364.359 271.015L289.675 307.868ZM285.852 300.12L360.536 263.268L339.51 220.657L264.826 257.51L285.852 300.12Z" fill="#932D2F" fill-opacity="0.99"/>
<path d="M546 460.748L546.101 452.109L660.605 453.452L660.504 462.09L546 460.748ZM561.766 447.973C558.904 447.939 556.464 447.065 554.447 445.351C552.43 443.637 551.434 441.591 551.458 439.212L552.015 391.7C552.043 389.324 553.087 387.303 555.147 385.637C557.207 383.97 559.667 383.152 562.526 383.183L645.801 384.159C648.664 384.193 651.105 385.068 653.126 386.785C655.146 388.502 656.141 390.547 656.109 392.92L655.552 440.433C655.524 442.808 654.482 444.831 652.425 446.5C650.369 448.169 647.908 448.986 645.041 448.949L561.766 447.973ZM561.867 439.334L645.143 440.31L645.7 392.798L562.424 391.822L561.867 439.334Z" fill="#932D2F" fill-opacity="0.99"/>
<g clip-path="url(#clip13_10_70)">
<path d="M71.4065 615.399L67.5836 607.651L170.273 556.979L174.096 564.726L71.4065 615.399ZM79.6752 596.868C77.108 598.135 74.537 598.461 71.9624 597.846C69.3877 597.232 67.5726 595.859 66.5169 593.727L45.4907 551.117C44.4393 548.986 44.4546 546.711 45.5363 544.293C46.618 541.874 48.4403 540.03 51.0031 538.763L125.687 501.91C128.254 500.643 130.827 500.317 133.406 500.933C135.985 501.549 137.798 502.921 138.845 505.051L159.871 547.661C160.922 549.792 160.909 552.067 159.832 554.487C158.755 556.906 156.93 558.749 154.359 560.015L79.6752 596.868ZM75.8523 589.12L150.536 552.268L129.51 509.657L54.8261 546.51L75.8523 589.12Z" fill="#932D2F" fill-opacity="0.99"/>
</g>
<g clip-path="url(#clip14_10_70)">
<path d="M252.407 641.399L248.584 633.651L351.273 582.979L355.096 590.726L252.407 641.399ZM260.675 622.868C258.108 624.135 255.537 624.461 252.962 623.846C250.388 623.232 248.573 621.859 247.517 619.727L226.491 577.117C225.439 574.986 225.455 572.711 226.536 570.293C227.618 567.874 229.44 566.03 232.003 564.763L306.687 527.91C309.254 526.643 311.827 526.317 314.406 526.933C316.985 527.549 318.798 528.921 319.845 531.051L340.871 573.661C341.922 575.792 341.909 578.067 340.832 580.487C339.755 582.906 337.93 584.749 335.359 586.015L260.675 622.868ZM256.852 615.12L331.536 578.268L310.51 535.657L235.826 572.51L256.852 615.12Z" fill="#932D2F" fill-opacity="0.99"/>
<path d="M252.407 641.399L248.584 633.651L351.273 582.979L355.096 590.726L252.407 641.399ZM260.675 622.868C258.108 624.135 255.537 624.461 252.962 623.846C250.388 623.232 248.573 621.859 247.517 619.727L226.491 577.117C225.439 574.986 225.455 572.711 226.536 570.293C227.618 567.874 229.44 566.03 232.003 564.763L306.687 527.91C309.254 526.643 311.827 526.317 314.406 526.933C316.985 527.549 318.798 528.921 319.845 531.051L340.871 573.661C341.922 575.792 341.909 578.067 340.832 580.487C339.755 582.906 337.93 584.749 335.359 586.015L260.675 622.868ZM256.852 615.12L331.536 578.268L310.51 535.657L235.826 572.51L256.852 615.12Z" fill="#932D2F" fill-opacity="0.99"/>
</g>
<path d="M260.407 798.399L256.584 790.651L359.273 739.979L363.096 747.726L260.407 798.399ZM268.675 779.868C266.108 781.135 263.537 781.461 260.962 780.846C258.388 780.232 256.573 778.859 255.517 776.727L234.491 734.117C233.439 731.986 233.455 729.711 234.536 727.293C235.618 724.874 237.44 723.03 240.003 721.763L314.687 684.91C317.254 683.643 319.827 683.317 322.406 683.933C324.985 684.549 326.798 685.921 327.845 688.051L348.871 730.661C349.922 732.792 349.909 735.067 348.832 737.487C347.755 739.906 345.93 741.749 343.359 743.015L268.675 779.868ZM264.852 772.12L339.536 735.268L318.51 692.657L243.826 729.51L264.852 772.12Z" fill="#932D2F" fill-opacity="0.99"/>
<g clip-path="url(#clip15_10_70)">
<path d="M8.04542 1271.35L4.22248 1263.6L106.912 1212.93L110.735 1220.68L8.04542 1271.35ZM16.3141 1252.82C13.7469 1254.09 11.176 1254.41 8.6013 1253.8C6.02665 1253.19 4.21147 1251.81 3.15577 1249.68L-17.8704 1207.07C-18.9217 1204.94 -18.9065 1202.66 -17.8248 1200.25C-16.7431 1197.83 -14.9208 1195.98 -12.3579 1194.72L62.3255 1157.86C64.8927 1156.6 67.4659 1156.27 70.0449 1156.89C72.624 1157.5 74.4369 1158.87 75.4839 1161L96.5101 1203.61C97.5614 1205.75 97.5484 1208.02 96.471 1210.44C95.3937 1212.86 93.5692 1214.7 90.9976 1215.97L16.3141 1252.82ZM12.4912 1245.07L87.1746 1208.22L66.1484 1165.61L-8.535 1202.46L12.4912 1245.07Z" fill="#932D2F" fill-opacity="0.99"/>
</g>
<path d="M1274.54 876.854L1278.33 869.093L1381.21 919.381L1377.41 927.143L1274.54 876.854ZM1294.26 872.069C1291.68 870.812 1289.85 868.977 1288.77 866.564C1287.68 864.15 1287.66 861.875 1288.7 859.736L1309.56 817.047C1310.61 814.913 1312.42 813.534 1314.99 812.912C1317.57 812.289 1320.14 812.604 1322.71 813.858L1397.53 850.431C1400.1 851.688 1401.93 853.526 1403.02 855.943C1404.11 858.36 1404.13 860.634 1403.09 862.765L1382.22 905.453C1381.18 907.588 1379.37 908.968 1376.8 909.595C1374.22 910.222 1371.65 909.904 1369.08 908.643L1294.26 872.069ZM1298.05 864.308L1372.87 900.881L1393.74 858.193L1318.92 821.619L1298.05 864.308Z" fill="#932D2F" fill-opacity="0.99"/>
<path d="M166.407 942.851L162.584 935.104L265.273 884.431L269.096 892.179L166.407 942.851ZM174.675 924.32C172.108 925.587 169.537 925.913 166.962 925.299C164.388 924.684 162.573 923.311 161.517 921.179L140.491 878.569C139.439 876.438 139.455 874.164 140.536 871.745C141.618 869.326 143.44 867.483 146.003 866.215L220.687 829.362C223.254 828.095 225.827 827.77 228.406 828.385C230.985 829.001 232.798 830.374 233.845 832.503L254.871 875.113C255.922 877.244 255.909 879.519 254.832 881.939C253.755 884.359 251.93 886.202 249.359 887.467L174.675 924.32ZM170.852 916.573L245.536 879.72L224.51 837.11L149.826 873.962L170.852 916.573Z" fill="#932D2F" fill-opacity="0.99"/>
<path d="M-17.5935 980.851L-21.4164 973.104L81.2733 922.431L85.0962 930.179L-17.5935 980.851ZM-9.32477 962.32C-11.892 963.587 -14.463 963.913 -17.0376 963.299C-19.6123 962.684 -21.4274 961.311 -22.4831 959.179L-43.5093 916.569C-44.5607 914.438 -44.5454 912.164 -43.4637 909.745C-42.382 907.326 -40.5597 905.483 -37.9969 904.215L36.6866 867.362C39.2538 866.095 41.827 865.77 44.406 866.385C46.985 867.001 48.798 868.374 49.8449 870.503L70.8711 913.113C71.9224 915.244 71.9094 917.519 70.8321 919.939C69.7548 922.359 67.9303 924.202 65.3587 925.467L-9.32477 962.32ZM-13.1477 954.573L61.5357 917.72L40.5095 875.11L-34.1739 911.962L-13.1477 954.573Z" fill="#932D2F" fill-opacity="0.99"/>
<path d="M767 905.2L767.101 896.561L881.605 897.904L881.504 906.543L767 905.2ZM782.766 892.425C779.904 892.392 777.464 891.518 775.447 889.804C773.43 888.089 772.434 886.043 772.458 883.665L773.015 836.152C773.043 833.776 774.087 831.755 776.147 830.089C778.207 828.423 780.667 827.605 783.526 827.635L866.801 828.612C869.664 828.645 872.105 829.521 874.126 831.238C876.146 832.955 877.141 835 877.109 837.372L876.552 884.885C876.524 887.261 875.482 889.283 873.425 890.952C871.369 892.622 868.908 893.438 866.041 893.402L782.766 892.425ZM782.867 883.787L866.143 884.763L866.7 837.25L783.424 836.274L782.867 883.787Z" fill="#932D2F" fill-opacity="0.99"/>
<path d="M593 1082.2L593.101 1073.56L707.605 1074.9L707.504 1083.54L593 1082.2ZM608.766 1069.43C605.904 1069.39 603.464 1068.52 601.447 1066.8C599.43 1065.09 598.434 1063.04 598.458 1060.66L599.015 1013.15C599.043 1010.78 600.087 1008.76 602.147 1007.09C604.207 1005.42 606.667 1004.6 609.526 1004.64L692.801 1005.61C695.664 1005.65 698.105 1006.52 700.126 1008.24C702.146 1009.95 703.141 1012 703.109 1014.37L702.552 1061.88C702.524 1064.26 701.482 1066.28 699.425 1067.95C697.369 1069.62 694.908 1070.44 692.041 1070.4L608.766 1069.43ZM608.867 1060.79L692.143 1061.76L692.7 1014.25L609.424 1013.27L608.867 1060.79Z" fill="#932D2F" fill-opacity="0.99"/>
<path d="M770 1042.2L770.101 1033.56L884.605 1034.9L884.504 1043.54L770 1042.2ZM785.766 1029.43C782.904 1029.39 780.464 1028.52 778.447 1026.8C776.43 1025.09 775.434 1023.04 775.458 1020.66L776.015 973.152C776.043 970.776 777.087 968.755 779.147 967.089C781.207 965.423 783.667 964.605 786.526 964.635L869.801 965.612C872.664 965.645 875.105 966.521 877.126 968.238C879.146 969.955 880.141 972 880.109 974.372L879.552 1021.88C879.524 1024.26 878.482 1026.28 876.425 1027.95C874.369 1029.62 871.908 1030.44 869.041 1030.4L785.766 1029.43ZM785.867 1020.79L869.143 1021.76L869.7 974.25L786.424 973.274L785.867 1020.79Z" fill="#932D2F" fill-opacity="0.99"/>
<path d="M713 1213.2L713.101 1204.56L827.605 1205.9L827.504 1214.54L713 1213.2ZM728.766 1200.43C725.904 1200.39 723.464 1199.52 721.447 1197.8C719.43 1196.09 718.434 1194.04 718.458 1191.66L719.015 1144.15C719.043 1141.78 720.087 1139.76 722.147 1138.09C724.207 1136.42 726.667 1135.6 729.526 1135.64L812.801 1136.61C815.664 1136.65 818.105 1137.52 820.126 1139.24C822.146 1140.95 823.141 1143 823.109 1145.37L822.552 1192.88C822.524 1195.26 821.482 1197.28 819.425 1198.95C817.369 1200.62 814.908 1201.44 812.041 1201.4L728.766 1200.43ZM728.867 1191.79L812.143 1192.76L812.7 1145.25L729.424 1144.27L728.867 1191.79Z" fill="#932D2F" fill-opacity="0.99"/>
<path d="M918 1118.31L921.794 1110.54L1024.67 1160.83L1020.88 1168.6L918 1118.31ZM937.72 1113.52C935.148 1112.26 933.318 1110.43 932.23 1108.02C931.143 1105.6 931.12 1103.33 932.161 1101.19L953.028 1058.5C954.072 1056.37 955.881 1054.99 958.456 1054.36C961.032 1053.74 963.605 1054.06 966.175 1055.31L1041 1091.88C1043.57 1093.14 1045.4 1094.98 1046.49 1097.4C1047.58 1099.81 1047.6 1102.09 1046.55 1104.22L1025.69 1146.91C1024.64 1149.04 1022.84 1150.42 1020.26 1151.05C1017.69 1151.67 1015.11 1151.36 1012.54 1150.1L937.72 1113.52ZM941.514 1105.76L1016.33 1142.33L1037.2 1099.65L962.381 1063.07L941.514 1105.76Z" fill="#932D2F" fill-opacity="0.99"/>
<path d="M927 1311.85L930.794 1304.09L1033.67 1354.38L1029.88 1362.14L927 1311.85ZM946.72 1307.07C944.148 1305.81 942.318 1303.98 941.23 1301.56C940.143 1299.15 940.12 1296.87 941.161 1294.74L962.028 1252.05C963.072 1249.91 964.881 1248.53 967.456 1247.91C970.032 1247.29 972.605 1247.6 975.175 1248.86L1050 1285.43C1052.57 1286.69 1054.4 1288.53 1055.49 1290.94C1056.58 1293.36 1056.6 1295.63 1055.55 1297.76L1034.69 1340.45C1033.64 1342.59 1031.84 1343.97 1029.26 1344.59C1026.69 1345.22 1024.11 1344.9 1021.54 1343.64L946.72 1307.07ZM950.514 1299.31L1025.33 1335.88L1046.2 1293.19L971.381 1256.62L950.514 1299.31Z" fill="#932D2F" fill-opacity="0.99"/>
<path d="M646 1364.75L646.101 1356.11L760.605 1357.45L760.504 1366.09L646 1364.75ZM661.766 1351.97C658.904 1351.94 656.464 1351.07 654.447 1349.35C652.43 1347.64 651.434 1345.59 651.458 1343.21L652.015 1295.7C652.043 1293.32 653.087 1291.3 655.147 1289.64C657.207 1287.97 659.667 1287.15 662.526 1287.18L745.801 1288.16C748.664 1288.19 751.105 1289.07 753.126 1290.79C755.146 1292.5 756.141 1294.55 756.109 1296.92L755.552 1344.43C755.524 1346.81 754.482 1348.83 752.425 1350.5C750.369 1352.17 747.908 1352.99 745.041 1352.95L661.766 1351.97ZM661.867 1343.33L745.143 1344.31L745.7 1296.8L662.424 1295.82L661.867 1343.33Z" fill="#932D2F" fill-opacity="0.99"/>
<path d="M713 1213.2L713.101 1204.56L827.605 1205.9L827.504 1214.54L713 1213.2ZM728.766 1200.43C725.904 1200.39 723.464 1199.52 721.447 1197.8C719.43 1196.09 718.434 1194.04 718.458 1191.66L719.015 1144.15C719.043 1141.78 720.087 1139.76 722.147 1138.09C724.207 1136.42 726.667 1135.6 729.526 1135.64L812.801 1136.61C815.664 1136.65 818.105 1137.52 820.126 1139.24C822.146 1140.95 823.141 1143 823.109 1145.37L822.552 1192.88C822.524 1195.26 821.482 1197.28 819.425 1198.95C817.369 1200.62 814.908 1201.44 812.041 1201.4L728.766 1200.43ZM728.867 1191.79L812.143 1192.76L812.7 1145.25L729.424 1144.27L728.867 1191.79Z" fill="#932D2F" fill-opacity="0.99"/>
<path d="M1272 1123.31L1275.79 1115.54L1378.67 1165.83L1374.88 1173.6L1272 1123.31ZM1291.72 1118.52C1289.15 1117.26 1287.32 1115.43 1286.23 1113.02C1285.14 1110.6 1285.12 1108.33 1286.16 1106.19L1307.03 1063.5C1308.07 1061.37 1309.88 1059.99 1312.46 1059.36C1315.03 1058.74 1317.6 1059.06 1320.17 1060.31L1395 1096.88C1397.57 1098.14 1399.4 1099.98 1400.49 1102.4C1401.58 1104.81 1401.6 1107.09 1400.55 1109.22L1379.69 1151.91C1378.64 1154.04 1376.84 1155.42 1374.26 1156.05C1371.69 1156.67 1369.11 1156.36 1366.54 1155.1L1291.72 1118.52ZM1295.51 1110.76L1370.33 1147.33L1391.2 1104.65L1316.38 1068.07L1295.51 1110.76Z" fill="#932D2F" fill-opacity="0.99"/>
<g clip-path="url(#clip16_10_70)">
<path d="M1152.54 971.854L1156.33 964.093L1259.21 1014.38L1255.41 1022.14L1152.54 971.854ZM1172.26 967.069C1169.68 965.812 1167.85 963.977 1166.77 961.564C1165.68 959.15 1165.66 956.875 1166.7 954.736L1187.56 912.047C1188.61 909.913 1190.42 908.535 1192.99 907.912C1195.57 907.289 1198.14 907.605 1200.71 908.858L1275.53 945.431C1278.1 946.689 1279.93 948.526 1281.02 950.943C1282.11 953.36 1282.13 955.634 1281.09 957.765L1260.22 1000.45C1259.18 1002.59 1257.37 1003.97 1254.8 1004.59C1252.22 1005.22 1249.65 1004.9 1247.08 1003.64L1172.26 967.069ZM1176.05 959.308L1250.87 995.881L1271.74 953.193L1196.92 916.619L1176.05 959.308Z" fill="#932D2F" fill-opacity="0.99"/>
</g>
<path d="M968 967.306L971.794 959.545L1074.67 1009.83L1070.88 1017.6L968 967.306ZM987.72 962.522C985.148 961.264 983.318 959.429 982.23 957.016C981.143 954.603 981.12 952.327 982.161 950.188L1003.03 907.5C1004.07 905.365 1005.88 903.987 1008.46 903.364C1011.03 902.742 1013.6 903.057 1016.17 904.31L1091 940.884C1093.57 942.141 1095.4 943.978 1096.49 946.395C1097.58 948.813 1097.6 951.087 1096.55 953.217L1075.69 995.906C1074.64 998.04 1072.84 999.421 1070.26 1000.05C1067.69 1000.67 1065.11 1000.36 1062.54 999.095L987.72 962.522ZM991.514 954.76L1066.33 991.334L1087.2 948.645L1012.38 912.072L991.514 954.76Z" fill="#932D2F" fill-opacity="0.99"/>
<path d="M331.407 986.851L327.584 979.104L430.273 928.431L434.096 936.179L331.407 986.851ZM339.675 968.32C337.108 969.587 334.537 969.913 331.962 969.299C329.388 968.684 327.573 967.311 326.517 965.179L305.491 922.569C304.439 920.438 304.455 918.164 305.536 915.745C306.618 913.326 308.44 911.483 311.003 910.215L385.687 873.362C388.254 872.095 390.827 871.77 393.406 872.385C395.985 873.001 397.798 874.374 398.845 876.503L419.871 919.113C420.922 921.244 420.909 923.519 419.832 925.939C418.755 928.359 416.93 930.202 414.359 931.467L339.675 968.32ZM335.852 960.573L410.536 923.72L389.51 881.11L314.826 917.962L335.852 960.573Z" fill="#932D2F" fill-opacity="0.99"/>
<path d="M331.407 986.851L327.584 979.104L430.273 928.431L434.096 936.179L331.407 986.851ZM339.675 968.32C337.108 969.587 334.537 969.913 331.962 969.299C329.388 968.684 327.573 967.311 326.517 965.179L305.491 922.569C304.439 920.438 304.455 918.164 305.536 915.745C306.618 913.326 308.44 911.483 311.003 910.215L385.687 873.362C388.254 872.095 390.827 871.77 393.406 872.385C395.985 873.001 397.798 874.374 398.845 876.503L419.871 919.113C420.922 921.244 420.909 923.519 419.832 925.939C418.755 928.359 416.93 930.202 414.359 931.467L339.675 968.32ZM335.852 960.573L410.536 923.72L389.51 881.11L314.826 917.962L335.852 960.573Z" fill="#932D2F" fill-opacity="0.99"/>
<path d="M463.407 1149.85L459.584 1142.1L562.273 1091.43L566.096 1099.18L463.407 1149.85ZM471.675 1131.32C469.108 1132.59 466.537 1132.91 463.962 1132.3C461.388 1131.68 459.573 1130.31 458.517 1128.18L437.491 1085.57C436.439 1083.44 436.455 1081.16 437.536 1078.74C438.618 1076.33 440.44 1074.48 443.003 1073.21L517.687 1036.36C520.254 1035.1 522.827 1034.77 525.406 1035.39C527.985 1036 529.798 1037.37 530.845 1039.5L551.871 1082.11C552.922 1084.24 552.909 1086.52 551.832 1088.94C550.755 1091.36 548.93 1093.2 546.359 1094.47L471.675 1131.32ZM467.852 1123.57L542.536 1086.72L521.51 1044.11L446.826 1080.96L467.852 1123.57Z" fill="#932D2F" fill-opacity="0.99"/>
<path d="M531.361 962.699L531.462 954.06L645.966 955.403L645.865 964.041L531.361 962.699ZM547.127 949.924C544.264 949.891 541.825 949.017 539.808 947.303C537.791 945.588 536.794 943.542 536.819 941.163L537.376 893.651C537.404 891.275 538.448 889.254 540.508 887.588C542.568 885.922 545.027 885.104 547.887 885.134L631.162 886.111C634.025 886.144 636.466 887.02 638.486 888.737C640.507 890.454 641.501 892.499 641.47 894.871L640.913 942.384C640.885 944.759 639.843 946.782 637.786 948.451C635.73 950.121 633.268 950.937 630.402 950.9L547.127 949.924ZM547.228 941.285L630.504 942.262L631.061 894.749L547.785 893.773L547.228 941.285Z" fill="#932D2F" fill-opacity="0.99"/>
<g clip-path="url(#clip17_10_70)">
<path d="M78.4065 1097.85L74.5836 1090.1L177.273 1039.43L181.096 1047.18L78.4065 1097.85ZM86.6752 1079.32C84.108 1080.59 81.537 1080.91 78.9624 1080.3C76.3877 1079.68 74.5726 1078.31 73.5169 1076.18L52.4907 1033.57C51.4393 1031.44 51.4546 1029.16 52.5363 1026.75C53.618 1024.33 55.4403 1022.48 58.0031 1021.22L132.687 984.362C135.254 983.096 137.827 982.77 140.406 983.386C142.985 984.001 144.798 985.374 145.845 987.503L166.871 1030.11C167.922 1032.24 167.909 1034.52 166.832 1036.94C165.755 1039.36 163.93 1041.2 161.359 1042.47L86.6752 1079.32ZM82.8523 1071.57L157.536 1034.72L136.51 992.11L61.8261 1028.96L82.8523 1071.57Z" fill="#932D2F" fill-opacity="0.99"/>
</g>
<g clip-path="url(#clip18_10_70)">
<path d="M259.407 1123.85L255.584 1116.1L358.273 1065.43L362.096 1073.18L259.407 1123.85ZM267.675 1105.32C265.108 1106.59 262.537 1106.91 259.962 1106.3C257.388 1105.68 255.573 1104.31 254.517 1102.18L233.491 1059.57C232.439 1057.44 232.455 1055.16 233.536 1052.75C234.618 1050.33 236.44 1048.48 239.003 1047.22L313.687 1010.36C316.254 1009.1 318.827 1008.77 321.406 1009.39C323.985 1010 325.798 1011.37 326.845 1013.5L347.871 1056.11C348.922 1058.24 348.909 1060.52 347.832 1062.94C346.755 1065.36 344.93 1067.2 342.359 1068.47L267.675 1105.32ZM263.852 1097.57L338.536 1060.72L317.51 1018.11L242.826 1054.96L263.852 1097.57Z" fill="#932D2F" fill-opacity="0.99"/>
<path d="M259.407 1123.85L255.584 1116.1L358.273 1065.43L362.096 1073.18L259.407 1123.85ZM267.675 1105.32C265.108 1106.59 262.537 1106.91 259.962 1106.3C257.388 1105.68 255.573 1104.31 254.517 1102.18L233.491 1059.57C232.439 1057.44 232.455 1055.16 233.536 1052.74C234.618 1050.33 236.44 1048.48 239.003 1047.21L313.687 1010.36C316.254 1009.1 318.827 1008.77 321.406 1009.39C323.985 1010 325.798 1011.37 326.845 1013.5L347.871 1056.11C348.922 1058.24 348.909 1060.52 347.832 1062.94C346.755 1065.36 344.93 1067.2 342.359 1068.47L267.675 1105.32ZM263.852 1097.57L338.536 1060.72L317.51 1018.11L242.826 1054.96L263.852 1097.57Z" fill="#932D2F" fill-opacity="0.99"/>
</g>
<path d="M266.768 1272.35L262.945 1264.6L365.634 1213.93L369.457 1221.68L266.768 1272.35ZM275.036 1253.82C272.469 1255.09 269.898 1255.41 267.323 1254.8C264.749 1254.18 262.934 1252.81 261.878 1250.68L240.852 1208.07C239.8 1205.94 239.816 1203.66 240.897 1201.24C241.979 1198.83 243.801 1196.98 246.364 1195.71L321.048 1158.86C323.615 1157.59 326.188 1157.27 328.767 1157.88C331.346 1158.5 333.159 1159.87 334.206 1162L355.232 1204.61C356.284 1206.74 356.271 1209.02 355.193 1211.44C354.116 1213.86 352.291 1215.7 349.72 1216.97L275.036 1253.82ZM271.213 1246.07L345.897 1209.22L324.871 1166.61L250.187 1203.46L271.213 1246.07Z" fill="#932D2F" fill-opacity="0.99"/>
<g clip-path="url(#clip19_10_70)">
<path d="M62.0454 1638.4L58.2225 1630.65L160.912 1579.98L164.735 1587.73L62.0454 1638.4ZM70.3141 1619.87C67.7469 1621.14 65.176 1621.46 62.6013 1620.85C60.0266 1620.23 58.2115 1618.86 57.1558 1616.73L36.1296 1574.12C35.0783 1571.99 35.0935 1569.71 36.1752 1567.29C37.2569 1564.88 39.0792 1563.03 41.6421 1561.76L116.325 1524.91C118.893 1523.65 121.466 1523.32 124.045 1523.94C126.624 1524.55 128.437 1525.92 129.484 1528.05L150.51 1570.66C151.561 1572.79 151.548 1575.07 150.471 1577.49C149.394 1579.91 147.569 1581.75 144.998 1583.02L70.3141 1619.87ZM66.4912 1612.12L141.175 1575.27L120.148 1532.66L45.465 1569.51L66.4912 1612.12Z" fill="#932D2F" fill-opacity="0.99"/>
</g>
<g clip-path="url(#clip20_10_70)">
<path d="M502.045 1695.4L498.222 1687.65L600.912 1636.98L604.735 1644.73L502.045 1695.4ZM510.314 1676.87C507.747 1678.14 505.176 1678.46 502.601 1677.85C500.027 1677.23 498.211 1675.86 497.156 1673.73L476.13 1631.12C475.078 1628.99 475.093 1626.71 476.175 1624.29C477.257 1621.88 479.079 1620.03 481.642 1618.76L556.325 1581.91C558.893 1580.65 561.466 1580.32 564.045 1580.94C566.624 1581.55 568.437 1582.92 569.484 1585.05L590.51 1627.66C591.561 1629.79 591.548 1632.07 590.471 1634.49C589.394 1636.91 587.569 1638.75 584.998 1640.02L510.314 1676.87ZM506.491 1669.12L581.175 1632.27L560.148 1589.66L485.465 1626.51L506.491 1669.12Z" fill="#932D2F" fill-opacity="0.99"/>
</g>
<path d="M774 1619.75L774.101 1611.11L888.605 1612.45L888.504 1621.09L774 1619.75ZM789.766 1606.97C786.904 1606.94 784.464 1606.07 782.447 1604.35C780.43 1602.64 779.434 1600.59 779.458 1598.21L780.015 1550.7C780.043 1548.32 781.087 1546.3 783.147 1544.64C785.207 1542.97 787.667 1542.15 790.526 1542.18L873.801 1543.16C876.664 1543.19 879.105 1544.07 881.126 1545.79C883.146 1547.5 884.141 1549.55 884.109 1551.92L883.552 1599.43C883.524 1601.81 882.482 1603.83 880.425 1605.5C878.369 1607.17 875.908 1607.99 873.041 1607.95L789.766 1606.97ZM789.867 1598.33L873.143 1599.31L873.7 1551.8L790.424 1550.82L789.867 1598.33Z" fill="#932D2F" fill-opacity="0.99"/>
<path d="M972 1485.36L975.794 1477.59L1078.67 1527.88L1074.88 1535.64L972 1485.36ZM991.72 1480.57C989.148 1479.31 987.318 1477.48 986.23 1475.06C985.143 1472.65 985.12 1470.38 986.161 1468.24L1007.03 1425.55C1008.07 1423.41 1009.88 1422.04 1012.46 1421.41C1015.03 1420.79 1017.6 1421.11 1020.17 1422.36L1095 1458.93C1097.57 1460.19 1099.4 1462.03 1100.49 1464.44C1101.58 1466.86 1101.6 1469.14 1100.55 1471.27L1079.69 1513.95C1078.64 1516.09 1076.84 1517.47 1074.26 1518.1C1071.69 1518.72 1069.11 1518.41 1066.54 1517.14L991.72 1480.57ZM995.514 1472.81L1070.33 1509.38L1091.2 1466.69L1016.38 1430.12L995.514 1472.81Z" fill="#932D2F" fill-opacity="0.99"/>
<path d="M712 1500.75L712.101 1492.11L826.605 1493.45L826.504 1502.09L712 1500.75ZM727.766 1487.97C724.904 1487.94 722.464 1487.07 720.447 1485.35C718.43 1483.64 717.434 1481.59 717.458 1479.21L718.015 1431.7C718.043 1429.32 719.087 1427.3 721.147 1425.64C723.207 1423.97 725.667 1423.15 728.526 1423.18L811.801 1424.16C814.664 1424.19 817.105 1425.07 819.126 1426.79C821.146 1428.5 822.141 1430.55 822.109 1432.92L821.552 1480.43C821.524 1482.81 820.482 1484.83 818.425 1486.5C816.369 1488.17 813.908 1488.99 811.041 1488.95L727.766 1487.97ZM727.867 1479.33L811.143 1480.31L811.7 1432.8L728.424 1431.82L727.867 1479.33Z" fill="#932D2F" fill-opacity="0.99"/>
<path d="M1326 1490.36L1329.79 1482.59L1432.67 1532.88L1428.88 1540.64L1326 1490.36ZM1345.72 1485.57C1343.15 1484.31 1341.32 1482.48 1340.23 1480.06C1339.14 1477.65 1339.12 1475.38 1340.16 1473.24L1361.03 1430.55C1362.07 1428.41 1363.88 1427.04 1366.46 1426.41C1369.03 1425.79 1371.6 1426.11 1374.17 1427.36L1449 1463.93C1451.57 1465.19 1453.4 1467.03 1454.49 1469.44C1455.58 1471.86 1455.6 1474.14 1454.55 1476.27L1433.69 1518.95C1432.64 1521.09 1430.84 1522.47 1428.26 1523.1C1425.69 1523.72 1423.11 1523.41 1420.54 1522.14L1345.72 1485.57ZM1349.51 1477.81L1424.33 1514.38L1445.2 1471.69L1370.38 1435.12L1349.51 1477.81Z" fill="#932D2F" fill-opacity="0.99"/>
<path d="M1014 1649.36L1017.79 1641.59L1120.67 1691.88L1116.88 1699.64L1014 1649.36ZM1033.72 1644.57C1031.15 1643.31 1029.32 1641.48 1028.23 1639.06C1027.14 1636.65 1027.12 1634.38 1028.16 1632.24L1049.03 1589.55C1050.07 1587.41 1051.88 1586.04 1054.46 1585.41C1057.03 1584.79 1059.6 1585.11 1062.17 1586.36L1137 1622.93C1139.57 1624.19 1141.4 1626.03 1142.49 1628.44C1143.58 1630.86 1143.6 1633.14 1142.55 1635.27L1121.69 1677.95C1120.64 1680.09 1118.84 1681.47 1116.26 1682.1C1113.69 1682.72 1111.11 1682.41 1108.54 1681.14L1033.72 1644.57ZM1037.51 1636.81L1112.33 1673.38L1133.2 1630.69L1058.38 1594.12L1037.51 1636.81Z" fill="#932D2F" fill-opacity="0.99"/>
<path d="M1151 1532.36L1154.79 1524.59L1257.67 1574.88L1253.88 1582.64L1151 1532.36ZM1170.72 1527.57C1168.15 1526.31 1166.32 1524.48 1165.23 1522.06C1164.14 1519.65 1164.12 1517.38 1165.16 1515.24L1186.03 1472.55C1187.07 1470.41 1188.88 1469.04 1191.46 1468.41C1194.03 1467.79 1196.6 1468.11 1199.17 1469.36L1274 1505.93C1276.57 1507.19 1278.4 1509.03 1279.49 1511.44C1280.58 1513.86 1280.6 1516.14 1279.55 1518.27L1258.69 1560.95C1257.64 1563.09 1255.84 1564.47 1253.26 1565.1C1250.69 1565.72 1248.11 1565.41 1245.54 1564.14L1170.72 1527.57ZM1174.51 1519.81L1249.33 1556.38L1270.2 1513.69L1195.38 1477.12L1174.51 1519.81Z" fill="#932D2F" fill-opacity="0.99"/>
<path d="M517.407 1516.9L513.584 1509.15L616.273 1458.48L620.096 1466.23L517.407 1516.9ZM525.675 1498.37C523.108 1499.64 520.537 1499.96 517.962 1499.35C515.388 1498.73 513.573 1497.36 512.517 1495.23L491.491 1452.62C490.439 1450.49 490.455 1448.21 491.536 1445.79C492.618 1443.37 494.44 1441.53 497.003 1440.26L571.687 1403.41C574.254 1402.14 576.827 1401.82 579.406 1402.43C581.985 1403.05 583.798 1404.42 584.845 1406.55L605.871 1449.16C606.922 1451.29 606.909 1453.57 605.832 1455.99C604.755 1458.41 602.93 1460.25 600.359 1461.52L525.675 1498.37ZM521.852 1490.62L596.536 1453.77L575.51 1411.16L500.826 1448.01L521.852 1490.62Z" fill="#932D2F" fill-opacity="0.99"/>
<g clip-path="url(#clip21_10_70)">
<path d="M132.407 1464.9L128.584 1457.15L231.273 1406.48L235.096 1414.23L132.407 1464.9ZM140.675 1446.37C138.108 1447.64 135.537 1447.96 132.962 1447.35C130.388 1446.73 128.573 1445.36 127.517 1443.23L106.491 1400.62C105.439 1398.49 105.455 1396.21 106.536 1393.79C107.618 1391.38 109.44 1389.53 112.003 1388.26L186.687 1351.41C189.254 1350.14 191.827 1349.82 194.406 1350.43C196.985 1351.05 198.798 1352.42 199.845 1354.55L220.871 1397.16C221.922 1399.29 221.909 1401.57 220.832 1403.99C219.755 1406.41 217.93 1408.25 215.359 1409.52L140.675 1446.37ZM136.852 1438.62L211.536 1401.77L190.51 1359.16L115.826 1396.01L136.852 1438.62Z" fill="#932D2F" fill-opacity="0.99"/>
</g>
<g clip-path="url(#clip22_10_70)">
<path d="M313.407 1490.9L309.584 1483.15L412.273 1432.48L416.096 1440.23L313.407 1490.9ZM321.675 1472.37C319.108 1473.64 316.537 1473.96 313.962 1473.35C311.388 1472.73 309.573 1471.36 308.517 1469.23L287.491 1426.62C286.439 1424.49 286.455 1422.21 287.536 1419.79C288.618 1417.38 290.44 1415.53 293.003 1414.26L367.687 1377.41C370.254 1376.14 372.827 1375.82 375.406 1376.43C377.985 1377.05 379.798 1378.42 380.845 1380.55L401.871 1423.16C402.922 1425.29 402.909 1427.57 401.832 1429.99C400.755 1432.41 398.93 1434.25 396.359 1435.52L321.675 1472.37ZM317.852 1464.62L392.536 1427.77L371.51 1385.16L296.826 1422.01L317.852 1464.62Z" fill="#932D2F" fill-opacity="0.99"/>
<path d="M313.407 1490.9L309.584 1483.15L412.273 1432.48L416.096 1440.23L313.407 1490.9ZM321.675 1472.37C319.108 1473.64 316.537 1473.96 313.962 1473.35C311.388 1472.73 309.573 1471.36 308.517 1469.23L287.491 1426.62C286.439 1424.49 286.455 1422.21 287.536 1419.79C288.618 1417.37 290.44 1415.53 293.003 1414.26L367.687 1377.41C370.254 1376.14 372.827 1375.82 375.406 1376.43C377.985 1377.05 379.798 1378.42 380.845 1380.55L401.871 1423.16C402.922 1425.29 402.909 1427.57 401.832 1429.99C400.755 1432.41 398.93 1434.25 396.359 1435.52L321.675 1472.37ZM317.852 1464.62L392.536 1427.77L371.51 1385.16L296.826 1422.01L317.852 1464.62Z" fill="#932D2F" fill-opacity="0.99"/>
</g>
<g clip-path="url(#clip23_10_70)">
<path d="M423.045 1349.9L419.222 1342.15L521.912 1291.48L525.735 1299.23L423.045 1349.9ZM431.314 1331.37C428.747 1332.64 426.176 1332.96 423.601 1332.35C421.027 1331.73 419.211 1330.36 418.156 1328.23L397.13 1285.62C396.078 1283.49 396.093 1281.21 397.175 1278.79C398.257 1276.38 400.079 1274.53 402.642 1273.26L477.325 1236.41C479.893 1235.14 482.466 1234.82 485.045 1235.43C487.624 1236.05 489.437 1237.42 490.484 1239.55L511.51 1282.16C512.561 1284.29 512.548 1286.57 511.471 1288.99C510.394 1291.41 508.569 1293.25 505.998 1294.52L431.314 1331.37ZM427.491 1323.62L502.175 1286.77L481.148 1244.16L406.465 1281.01L427.491 1323.62Z" fill="#932D2F" fill-opacity="0.99"/>
<path d="M423.045 1349.9L419.222 1342.15L521.912 1291.48L525.735 1299.23L423.045 1349.9ZM431.314 1331.37C428.747 1332.64 426.176 1332.96 423.601 1332.35C421.027 1331.73 419.211 1330.36 418.156 1328.23L397.13 1285.62C396.078 1283.49 396.093 1281.21 397.175 1278.79C398.257 1276.37 400.079 1274.53 402.642 1273.26L477.325 1236.41C479.893 1235.14 482.466 1234.82 485.045 1235.43C487.624 1236.05 489.437 1237.42 490.484 1239.55L511.51 1282.16C512.561 1284.29 512.548 1286.57 511.471 1288.99C510.394 1291.41 508.569 1293.25 505.998 1294.52L431.314 1331.37ZM427.491 1323.62L502.175 1286.77L481.148 1244.16L406.465 1281.01L427.491 1323.62Z" fill="#932D2F" fill-opacity="0.99"/>
</g>
<path d="M321.407 1647.9L317.584 1640.15L420.273 1589.48L424.096 1597.23L321.407 1647.9ZM329.675 1629.37C327.108 1630.64 324.537 1630.96 321.962 1630.35C319.388 1629.73 317.573 1628.36 316.517 1626.23L295.491 1583.62C294.439 1581.49 294.455 1579.21 295.536 1576.79C296.618 1574.37 298.44 1572.53 301.003 1571.26L375.687 1534.41C378.254 1533.14 380.827 1532.82 383.406 1533.43C385.985 1534.05 387.798 1535.42 388.845 1537.55L409.871 1580.16C410.922 1582.29 410.909 1584.57 409.832 1586.99C408.755 1589.41 406.93 1591.25 404.359 1592.52L329.675 1629.37ZM325.852 1621.62L400.536 1584.77L379.51 1542.16L304.826 1579.01L325.852 1621.62Z" fill="#932D2F" fill-opacity="0.99"/>
<path d="M1288 1686.85L1291.79 1679.09L1394.67 1729.38L1390.88 1737.14L1288 1686.85ZM1307.72 1682.07C1305.15 1680.81 1303.32 1678.98 1302.23 1676.56C1301.14 1674.15 1301.12 1671.87 1302.16 1669.74L1323.03 1627.05C1324.07 1624.91 1325.88 1623.53 1328.46 1622.91C1331.03 1622.29 1333.6 1622.6 1336.17 1623.86L1411 1660.43C1413.57 1661.69 1415.4 1663.53 1416.49 1665.94C1417.58 1668.36 1417.6 1670.63 1416.55 1672.76L1395.69 1715.45C1394.64 1717.59 1392.84 1718.97 1390.26 1719.59C1387.69 1720.22 1385.11 1719.9 1382.54 1718.64L1307.72 1682.07ZM1311.51 1674.31L1386.33 1710.88L1407.2 1668.19L1332.38 1631.62L1311.51 1674.31Z" fill="#932D2F" fill-opacity="0.99"/>
<path d="M227.407 1792.35L223.584 1784.6L326.273 1733.93L330.096 1741.68L227.407 1792.35ZM235.675 1773.82C233.108 1775.09 230.537 1775.41 227.962 1774.8C225.388 1774.19 223.573 1772.81 222.517 1770.68L201.491 1728.07C200.439 1725.94 200.455 1723.66 201.536 1721.25C202.618 1718.83 204.44 1716.98 207.003 1715.72L281.687 1678.86C284.254 1677.6 286.827 1677.27 289.406 1677.89C291.985 1678.5 293.798 1679.87 294.845 1682L315.871 1724.61C316.922 1726.75 316.909 1729.02 315.832 1731.44C314.755 1733.86 312.93 1735.7 310.359 1736.97L235.675 1773.82ZM231.852 1766.07L306.536 1729.22L285.51 1686.61L210.826 1723.46L231.852 1766.07Z" fill="#932D2F" fill-opacity="0.99"/>
<path d="M43.4065 1830.35L39.5836 1822.6L142.273 1771.93L146.096 1779.68L43.4065 1830.35ZM51.6752 1811.82C49.108 1813.09 46.537 1813.41 43.9624 1812.8C41.3877 1812.19 39.5726 1810.81 38.5169 1808.68L17.4907 1766.07C16.4393 1763.94 16.4546 1761.66 17.5363 1759.25C18.618 1756.83 20.4403 1754.98 23.0031 1753.72L97.6866 1716.86C100.254 1715.6 102.827 1715.27 105.406 1715.89C107.985 1716.5 109.798 1717.87 110.845 1720L131.871 1762.61C132.922 1764.75 132.909 1767.02 131.832 1769.44C130.755 1771.86 128.93 1773.7 126.359 1774.97L51.6752 1811.82ZM47.8523 1804.07L122.536 1767.22L101.51 1724.61L26.8261 1761.46L47.8523 1804.07Z" fill="#932D2F" fill-opacity="0.99"/>
<path d="M828 1754.7L828.101 1746.06L942.605 1747.41L942.504 1756.04L828 1754.7ZM843.766 1741.93C840.904 1741.89 838.464 1741.02 836.447 1739.3C834.43 1737.59 833.434 1735.54 833.458 1733.17L834.015 1685.65C834.043 1683.28 835.087 1681.26 837.147 1679.59C839.207 1677.92 841.667 1677.11 844.526 1677.14L927.801 1678.11C930.664 1678.15 933.105 1679.02 935.126 1680.74C937.146 1682.46 938.141 1684.5 938.109 1686.87L937.552 1734.39C937.524 1736.76 936.482 1738.78 934.425 1740.45C932.369 1742.12 929.908 1742.94 927.041 1742.9L843.766 1741.93ZM843.867 1733.29L927.143 1734.26L927.7 1686.75L844.424 1685.78L843.867 1733.29Z" fill="#932D2F" fill-opacity="0.99"/>
<path d="M828 1754.7L828.101 1746.06L942.605 1747.41L942.504 1756.04L828 1754.7ZM843.766 1741.93C840.904 1741.89 838.464 1741.02 836.447 1739.3C834.43 1737.59 833.434 1735.54 833.458 1733.17L834.015 1685.65C834.043 1683.28 835.087 1681.26 837.147 1679.59C839.207 1677.92 841.667 1677.11 844.526 1677.14L927.801 1678.11C930.664 1678.15 933.105 1679.02 935.126 1680.74C937.146 1682.46 938.141 1684.5 938.109 1686.87L937.552 1734.39C937.524 1736.76 936.482 1738.78 934.425 1740.45C932.369 1742.12 929.908 1742.94 927.041 1742.9L843.766 1741.93ZM843.867 1733.29L927.143 1734.26L927.7 1686.75L844.424 1685.78L843.867 1733.29Z" fill="#932D2F" fill-opacity="0.99"/>
<path d="M831 1891.7L831.101 1883.06L945.605 1884.41L945.504 1893.04L831 1891.7ZM846.766 1878.93C843.904 1878.89 841.464 1878.02 839.447 1876.3C837.43 1874.59 836.434 1872.54 836.458 1870.17L837.015 1822.65C837.043 1820.28 838.087 1818.26 840.147 1816.59C842.207 1814.92 844.667 1814.11 847.526 1814.14L930.801 1815.11C933.664 1815.15 936.105 1816.02 938.126 1817.74C940.146 1819.46 941.141 1821.5 941.109 1823.87L940.552 1871.39C940.524 1873.76 939.482 1875.78 937.425 1877.45C935.369 1879.12 932.908 1879.94 930.041 1879.9L846.766 1878.93ZM846.867 1870.29L930.143 1871.26L930.7 1823.75L847.424 1822.78L846.867 1870.29Z" fill="#932D2F" fill-opacity="0.99"/>
<path d="M831 1891.7L831.101 1883.06L945.605 1884.41L945.504 1893.04L831 1891.7ZM846.766 1878.93C843.904 1878.89 841.464 1878.02 839.447 1876.3C837.43 1874.59 836.434 1872.54 836.458 1870.17L837.015 1822.65C837.043 1820.28 838.087 1818.26 840.147 1816.59C842.207 1814.92 844.667 1814.11 847.526 1814.14L930.801 1815.11C933.664 1815.15 936.105 1816.02 938.126 1817.74C940.146 1819.46 941.141 1821.5 941.109 1823.87L940.552 1871.39C940.524 1873.76 939.482 1875.78 937.425 1877.45C935.369 1879.12 932.908 1879.94 930.041 1879.9L846.766 1878.93ZM846.867 1870.29L930.143 1871.26L930.7 1823.75L847.424 1822.78L846.867 1870.29Z" fill="#932D2F" fill-opacity="0.99"/>
<g clip-path="url(#clip24_10_70)">
<path d="M1213.54 1821.36L1217.33 1813.59L1320.21 1863.88L1316.41 1871.64L1213.54 1821.36ZM1233.26 1816.57C1230.68 1815.31 1228.85 1813.48 1227.77 1811.06C1226.68 1808.65 1226.66 1806.38 1227.7 1804.24L1248.56 1761.55C1249.61 1759.41 1251.42 1758.04 1253.99 1757.41C1256.57 1756.79 1259.14 1757.11 1261.71 1758.36L1336.53 1794.93C1339.1 1796.19 1340.93 1798.03 1342.02 1800.44C1343.11 1802.86 1343.13 1805.14 1342.09 1807.27L1321.22 1849.95C1320.18 1852.09 1318.37 1853.47 1315.8 1854.1C1313.22 1854.72 1310.65 1854.41 1308.08 1853.14L1233.26 1816.57ZM1237.05 1808.81L1311.87 1845.38L1332.74 1802.69L1257.92 1766.12L1237.05 1808.81Z" fill="#932D2F" fill-opacity="0.99"/>
</g>
<g clip-path="url(#clip25_10_70)">
<path d="M1258.54 1312.4L1262.33 1304.64L1365.21 1354.93L1361.41 1362.69L1258.54 1312.4ZM1278.26 1307.62C1275.68 1306.36 1273.85 1304.52 1272.77 1302.11C1271.68 1299.7 1271.66 1297.42 1272.7 1295.28L1293.56 1252.6C1294.61 1250.46 1296.42 1249.08 1298.99 1248.46C1301.57 1247.84 1304.14 1248.15 1306.71 1249.41L1381.53 1285.98C1384.1 1287.24 1385.93 1289.07 1387.02 1291.49C1388.11 1293.91 1388.13 1296.18 1387.09 1298.31L1366.22 1341C1365.18 1343.14 1363.37 1344.52 1360.8 1345.14C1358.22 1345.77 1355.65 1345.45 1353.08 1344.19L1278.26 1307.62ZM1282.05 1299.86L1356.87 1336.43L1377.74 1293.74L1302.92 1257.17L1282.05 1299.86Z" fill="#932D2F" fill-opacity="0.99"/>
</g>
<g clip-path="url(#clip26_10_70)">
<path d="M1091.54 1196.4L1095.33 1188.64L1198.21 1238.93L1194.41 1246.69L1091.54 1196.4ZM1111.26 1191.62C1108.68 1190.36 1106.85 1188.52 1105.77 1186.11C1104.68 1183.7 1104.66 1181.42 1105.7 1179.28L1126.56 1136.6C1127.61 1134.46 1129.42 1133.08 1131.99 1132.46C1134.57 1131.84 1137.14 1132.15 1139.71 1133.41L1214.53 1169.98C1217.1 1171.24 1218.93 1173.07 1220.02 1175.49C1221.11 1177.91 1221.13 1180.18 1220.09 1182.31L1199.22 1225C1198.18 1227.14 1196.37 1228.52 1193.8 1229.14C1191.22 1229.77 1188.65 1229.45 1186.08 1228.19L1111.26 1191.62ZM1115.05 1183.86L1189.87 1220.43L1210.74 1177.74L1135.92 1141.17L1115.05 1183.86Z" fill="#932D2F" fill-opacity="0.99"/>
</g>
<path d="M1029 1816.81L1032.79 1809.05L1135.67 1859.33L1131.88 1867.1L1029 1816.81ZM1048.72 1812.02C1046.15 1810.77 1044.32 1808.93 1043.23 1806.52C1042.14 1804.1 1042.12 1801.83 1043.16 1799.69L1064.03 1757C1065.07 1754.87 1066.88 1753.49 1069.46 1752.87C1072.03 1752.24 1074.6 1752.56 1077.17 1753.81L1152 1790.38C1154.57 1791.64 1156.4 1793.48 1157.49 1795.9C1158.58 1798.31 1158.6 1800.59 1157.55 1802.72L1136.69 1845.41C1135.64 1847.54 1133.84 1848.92 1131.26 1849.55C1128.69 1850.18 1126.11 1849.86 1123.54 1848.6L1048.72 1812.02ZM1052.51 1804.26L1127.33 1840.83L1148.2 1798.15L1073.38 1761.57L1052.51 1804.26Z" fill="#932D2F" fill-opacity="0.99"/>
<path d="M392.407 1836.35L388.584 1828.6L491.273 1777.93L495.096 1785.68L392.407 1836.35ZM400.675 1817.82C398.108 1819.09 395.537 1819.41 392.962 1818.8C390.388 1818.19 388.573 1816.81 387.517 1814.68L366.491 1772.07C365.439 1769.94 365.455 1767.66 366.536 1765.25C367.618 1762.83 369.44 1760.98 372.003 1759.72L446.687 1722.86C449.254 1721.6 451.827 1721.27 454.406 1721.89C456.985 1722.5 458.798 1723.87 459.845 1726L480.871 1768.61C481.922 1770.75 481.909 1773.02 480.832 1775.44C479.755 1777.86 477.93 1779.7 475.359 1780.97L400.675 1817.82ZM396.852 1810.07L471.536 1773.22L450.51 1730.61L375.826 1767.46L396.852 1810.07Z" fill="#932D2F" fill-opacity="0.99"/>
<path d="M392.407 1836.35L388.584 1828.6L491.273 1777.93L495.096 1785.68L392.407 1836.35ZM400.675 1817.82C398.108 1819.09 395.537 1819.41 392.962 1818.8C390.388 1818.19 388.573 1816.81 387.517 1814.68L366.491 1772.07C365.439 1769.94 365.455 1767.66 366.536 1765.25C367.618 1762.83 369.44 1760.98 372.003 1759.72L446.687 1722.86C449.254 1721.6 451.827 1721.27 454.406 1721.89C456.985 1722.5 458.798 1723.87 459.845 1726L480.871 1768.61C481.922 1770.75 481.909 1773.02 480.832 1775.44C479.755 1777.86 477.93 1779.7 475.359 1780.97L400.675 1817.82ZM396.852 1810.07L471.536 1773.22L450.51 1730.61L375.826 1767.46L396.852 1810.07Z" fill="#932D2F" fill-opacity="0.99"/>
<path d="M592.361 1812.2L592.462 1803.56L706.966 1804.9L706.865 1813.54L592.361 1812.2ZM608.127 1799.43C605.264 1799.39 602.825 1798.52 600.808 1796.8C598.791 1795.09 597.794 1793.04 597.819 1790.66L598.376 1743.15C598.404 1740.78 599.448 1738.76 601.508 1737.09C603.568 1735.42 606.027 1734.6 608.887 1734.64L692.162 1735.61C695.025 1735.65 697.466 1736.52 699.486 1738.24C701.507 1739.95 702.501 1742 702.47 1744.37L701.913 1791.88C701.885 1794.26 700.843 1796.28 698.786 1797.95C696.73 1799.62 694.268 1800.44 691.402 1800.4L608.127 1799.43ZM608.228 1790.79L691.504 1791.76L692.061 1744.25L608.785 1743.27L608.228 1790.79Z" fill="#932D2F" fill-opacity="0.99"/>
<g clip-path="url(#clip27_10_70)">
<path d="M139.407 1947.35L135.584 1939.61L238.273 1888.93L242.096 1896.68L139.407 1947.35ZM147.675 1928.82C145.108 1930.09 142.537 1930.41 139.962 1929.8C137.388 1929.19 135.573 1927.81 134.517 1925.68L113.491 1883.07C112.439 1880.94 112.455 1878.67 113.536 1876.25C114.618 1873.83 116.44 1871.98 119.003 1870.72L193.687 1833.86C196.254 1832.6 198.827 1832.27 201.406 1832.89C203.985 1833.5 205.798 1834.87 206.845 1837L227.871 1879.61C228.922 1881.75 228.909 1884.02 227.832 1886.44C226.755 1888.86 224.93 1890.7 222.359 1891.97L147.675 1928.82ZM143.852 1921.07L218.536 1884.22L197.51 1841.61L122.826 1878.46L143.852 1921.07Z" fill="#932D2F" fill-opacity="0.99"/>
</g>
<defs>
<clipPath id="clip0_10_70">
<rect width="148.767" height="131.44" fill="white" transform="translate(-46 706.831) rotate(-26.2641)"/>
</clipPath>
<clipPath id="clip1_10_70">
<rect width="148.767" height="131.44" fill="white" transform="translate(394 763.831) rotate(-26.2641)"/>
</clipPath>
<clipPath id="clip2_10_70">
<rect width="148.767" height="131.44" fill="white" transform="translate(46 240.831) rotate(-26.2641)"/>
</clipPath>
<clipPath id="clip3_10_70">
<rect width="148.767" height="131.44" fill="white" transform="translate(-87 174.831) rotate(-26.2641)"/>
</clipPath>
<clipPath id="clip4_10_70">
<rect width="148.767" height="131.44" fill="white" transform="translate(1382.72 -51) rotate(26.0503)"/>
</clipPath>
<clipPath id="clip5_10_70">
<rect width="148.767" height="131.44" fill="white" transform="translate(-50 -47.1691) rotate(-26.2641)"/>
</clipPath>
<clipPath id="clip6_10_70">
<rect width="148.767" height="131.44" fill="white" transform="translate(46 69.8309) rotate(-26.2641)"/>
</clipPath>
<clipPath id="clip7_10_70">
<rect width="148.767" height="131.44" fill="white" transform="translate(1260.72 44) rotate(26.0503)"/>
</clipPath>
<clipPath id="clip8_10_70">
<rect width="148.767" height="131.44" fill="white" transform="translate(1393.72 166) rotate(26.0503)"/>
</clipPath>
<clipPath id="clip9_10_70">
<rect width="148.767" height="131.44" fill="white" transform="translate(1181.72 402) rotate(26.0503)"/>
</clipPath>
<clipPath id="clip10_10_70">
<rect width="148.767" height="131.44" fill="white" transform="translate(227 95.8309) rotate(-26.2641)"/>
</clipPath>
<clipPath id="clip11_10_70">
<rect width="148.767" height="131.44" fill="white" transform="translate(299 -41.1691) rotate(-26.2641)"/>
</clipPath>
<clipPath id="clip12_10_70">
<rect width="148.767" height="131.44" fill="white" transform="translate(431 121.831) rotate(-26.2641)"/>
</clipPath>
<clipPath id="clip13_10_70">
<rect width="148.767" height="131.44" fill="white" transform="translate(24.3611 533.33) rotate(-26.2641)"/>
</clipPath>
<clipPath id="clip14_10_70">
<rect width="148.767" height="131.44" fill="white" transform="translate(205.361 559.33) rotate(-26.2641)"/>
</clipPath>
<clipPath id="clip15_10_70">
<rect width="148.767" height="131.44" fill="white" transform="translate(-39 1189.28) rotate(-26.2641)"/>
</clipPath>
<clipPath id="clip16_10_70">
<rect width="148.767" height="131.44" fill="white" transform="translate(1188.72 884.452) rotate(26.0503)"/>
</clipPath>
<clipPath id="clip17_10_70">
<rect width="148.767" height="131.44" fill="white" transform="translate(31.3611 1015.78) rotate(-26.2641)"/>
</clipPath>
<clipPath id="clip18_10_70">
<rect width="148.767" height="131.44" fill="white" transform="translate(212.361 1041.78) rotate(-26.2641)"/>
</clipPath>
<clipPath id="clip19_10_70">
<rect width="148.767" height="131.44" fill="white" transform="translate(15 1556.33) rotate(-26.2641)"/>
</clipPath>
<clipPath id="clip20_10_70">
<rect width="148.767" height="131.44" fill="white" transform="translate(455 1613.33) rotate(-26.2641)"/>
</clipPath>
<clipPath id="clip21_10_70">
<rect width="148.767" height="131.44" fill="white" transform="translate(85.3611 1382.83) rotate(-26.2641)"/>
</clipPath>
<clipPath id="clip22_10_70">
<rect width="148.767" height="131.44" fill="white" transform="translate(266.361 1408.83) rotate(-26.2641)"/>
</clipPath>
<clipPath id="clip23_10_70">
<rect width="148.767" height="131.44" fill="white" transform="translate(376 1267.83) rotate(-26.2641)"/>
</clipPath>
<clipPath id="clip24_10_70">
<rect width="148.767" height="131.44" fill="white" transform="translate(1249.72 1733.95) rotate(26.0503)"/>
</clipPath>
<clipPath id="clip25_10_70">
<rect width="148.767" height="131.44" fill="white" transform="translate(1294.72 1225) rotate(26.0503)"/>
</clipPath>
<clipPath id="clip26_10_70">
<rect width="148.767" height="131.44" fill="white" transform="translate(1127.72 1109) rotate(26.0503)"/>
</clipPath>
<clipPath id="clip27_10_70">
<rect width="148.767" height="131.44" fill="white" transform="translate(92.3611 1865.28) rotate(-26.2641)"/>
</clipPath>
</defs>
</svg>
