<svg width="44" height="45" viewBox="0 0 44 45" fill="none" xmlns="http://www.w3.org/2000/svg">
<path d="M0 5.625C0 2.52246 2.52246 0 5.625 0H19.6875V11.25C19.6875 12.8057 20.9443 14.0625 22.5 14.0625H33.75V26.7188H15.4688C12.3662 26.7188 9.84375 29.2412 9.84375 32.3438V45H5.625C2.52246 45 0 42.4775 0 39.375V5.625ZM33.75 11.25H22.5V0L33.75 11.25ZM15.4688 30.9375H18.2812C20.9971 30.9375 23.2031 33.1436 23.2031 35.8594C23.2031 38.5752 20.9971 40.7812 18.2812 40.7812H16.875V43.5938C16.875 44.3672 16.2422 45 15.4688 45C14.6953 45 14.0625 44.3672 14.0625 43.5938V32.3438C14.0625 31.5703 14.6953 30.9375 15.4688 30.9375ZM18.2812 37.9688C19.4502 37.9688 20.3906 37.0283 20.3906 35.8594C20.3906 34.6904 19.4502 33.75 18.2812 33.75H16.875V37.9688H18.2812ZM26.7188 30.9375H29.5312C31.8604 30.9375 33.75 32.8271 33.75 35.1562V40.7812C33.75 43.1104 31.8604 45 29.5312 45H26.7188C25.9453 45 25.3125 44.3672 25.3125 43.5938V32.3438C25.3125 31.5703 25.9453 30.9375 26.7188 30.9375ZM29.5312 42.1875C30.3047 42.1875 30.9375 41.5547 30.9375 40.7812V35.1562C30.9375 34.3828 30.3047 33.75 29.5312 33.75H28.125V42.1875H29.5312ZM36.5625 32.3438C36.5625 31.5703 37.1953 30.9375 37.9688 30.9375H42.1875C42.9609 30.9375 43.5938 31.5703 43.5938 32.3438C43.5938 33.1172 42.9609 33.75 42.1875 33.75H39.375V36.5625H42.1875C42.9609 36.5625 43.5938 37.1953 43.5938 37.9688C43.5938 38.7422 42.9609 39.375 42.1875 39.375H39.375V43.5938C39.375 44.3672 38.7422 45 37.9688 45C37.1953 45 36.5625 44.3672 36.5625 43.5938V32.3438Z" fill="#932D2F" fill-opacity="0.99"/>
</svg>
